<svg id="Layer_1" data-name="Layer 1" xmlns="http://www.w3.org/2000/svg" viewBox="0 0 360.88 379.08"><title>shared-state</title><rect x="0.44" y="0.44" width="360" height="225" rx="12" ry="12" style="fill:#e6e6e6;stroke:gray;stroke-miterlimit:10;stroke-width:0.883883476483185px"/><path d="M155.49,20a.65.65,0,0,1-1.31,0,.64.64,0,0,1,.66-.66A.63.63,0,0,1,155.49,20Zm-1.17,7.44v-5.8h1.05v5.8Z"/><path d="M157.13,23.21c0-.6,0-1.09,0-1.57H158l.06,1h0A2.14,2.14,0,0,1,160,21.51c.8,0,2.05.48,2.05,2.47v3.47H161V24.1c0-.94-.35-1.71-1.34-1.71a1.5,1.5,0,0,0-1.42,1.08,1.52,1.52,0,0,0-.07.49v3.49h-1.05Z"/><path d="M168.8,18.93v7c0,.52,0,1.1,0,1.5h-.95l0-1h0a2.15,2.15,0,0,1-2,1.14c-1.4,0-2.48-1.19-2.48-3,0-1.93,1.19-3.12,2.6-3.12a1.94,1.94,0,0,1,1.75.89h0V18.93ZM167.74,24a1.85,1.85,0,0,0,0-.44,1.55,1.55,0,0,0-1.52-1.22c-1.09,0-1.74,1-1.74,2.24s.58,2.15,1.71,2.15a1.59,1.59,0,0,0,1.55-1.26,1.83,1.83,0,0,0,0-.46Z"/><path d="M171.14,24.73a1.86,1.86,0,0,0,2,2,3.82,3.82,0,0,0,1.61-.3l.18.76a4.7,4.7,0,0,1-1.93.36,2.7,2.7,0,0,1-2.85-2.93c0-1.75,1-3.13,2.72-3.13a2.46,2.46,0,0,1,2.4,2.73,4,4,0,0,1,0,.49Zm3.09-.76a1.5,1.5,0,0,0-1.46-1.71A1.75,1.75,0,0,0,171.15,24Z"/><path d="M177,21.64l.83,1.25c.22.32.4.62.59.95h0c.19-.35.38-.65.58-1l.82-1.24H181l-2,2.81,2,3h-1.2L179,26.13c-.23-.34-.42-.66-.62-1h0c-.19.35-.4.66-.61,1l-.84,1.31h-1.16l2.06-3-2-2.84Z"/><path d="M181.83,26.82a.71.71,0,0,1,.72-.76.76.76,0,1,1-.72.76Z"/><path d="M184.57,18.93h1.05v3.62h0a2,2,0,0,1,.76-.74,2.17,2.17,0,0,1,1.08-.3c.78,0,2,.48,2,2.48v3.45h-1.05V24.11c0-.94-.35-1.73-1.34-1.73a1.52,1.52,0,0,0-1.42,1.06,1.29,1.29,0,0,0-.07.5v3.5h-1.05Z"/><path d="M192.45,20v1.67H194v.8h-1.51v3.13c0,.72.2,1.13.79,1.13a2.36,2.36,0,0,0,.61-.07l0,.79a2.58,2.58,0,0,1-.94.14,1.46,1.46,0,0,1-1.14-.44,2.15,2.15,0,0,1-.41-1.51V22.44h-.9v-.8h.9V20.25Z"/><path d="M195.15,23.21c0-.6,0-1.09,0-1.57H196l0,.94h0a2,2,0,0,1,1.82-1.07,1.72,1.72,0,0,1,1.64,1.16h0a2.38,2.38,0,0,1,.65-.76,2,2,0,0,1,1.28-.41c.77,0,1.91.5,1.91,2.52v3.42h-1V24.16c0-1.12-.41-1.79-1.26-1.79a1.37,1.37,0,0,0-1.25,1,1.74,1.74,0,0,0-.08.53v3.59h-1V24c0-.92-.41-1.6-1.21-1.6a1.57,1.57,0,0,0-1.39,1.57v3.5h-1Z"/><path d="M205.16,18.93h1.05v8.52h-1.05Z"/><rect x="18.44" y="54.44" width="153" height="153" rx="12" ry="12" style="fill:#fbb03b;stroke:#000;stroke-miterlimit:10"/><path d="M38.66,78.9l-.84,2.54H36.74l2.75-8.08h1.26l2.76,8.08H42.39l-.86-2.54Zm2.65-.82-.79-2.33c-.18-.53-.3-1-.42-1.48h0c-.12.48-.25,1-.41,1.46l-.79,2.34Z"/><path d="M44.63,77.53c0-.74,0-1.34,0-1.9h.95l0,1h0a2.28,2.28,0,0,1,2.06-1.13c1.4,0,2.46,1.19,2.46,3,0,2.09-1.27,3.12-2.64,3.12a2,2,0,0,1-1.79-.91h0v3.15h-1Zm1,1.55a2.43,2.43,0,0,0,0,.43,1.63,1.63,0,0,0,1.58,1.24c1.12,0,1.76-.91,1.76-2.24,0-1.16-.61-2.16-1.73-2.16a1.68,1.68,0,0,0-1.59,1.31,1.71,1.71,0,0,0-.07.43Z"/><path d="M51.45,77.53c0-.74,0-1.34,0-1.9h.95l0,1h0a2.28,2.28,0,0,1,2.06-1.13c1.4,0,2.46,1.19,2.46,3,0,2.09-1.27,3.12-2.64,3.12a2,2,0,0,1-1.79-.91h0v3.15h-1Zm1,1.55a2.43,2.43,0,0,0,0,.43,1.63,1.63,0,0,0,1.58,1.24c1.12,0,1.76-.91,1.76-2.24,0-1.16-.61-2.16-1.73-2.16a1.68,1.68,0,0,0-1.59,1.31,1.71,1.71,0,0,0-.07.43Z"/><path d="M57.74,80.82a.71.71,0,0,1,.72-.76.76.76,0,1,1-.72.76Z"/><path d="M60.89,75.64,62,78.9a15.13,15.13,0,0,1,.47,1.49h0c.13-.48.3-1,.49-1.49l1.13-3.26h1.1L63,81.44H62l-2.21-5.8Z"/><path d="M71.11,79.86c0,.6,0,1.13,0,1.58h-.94l-.06-.95h0a2.18,2.18,0,0,1-1.92,1.08c-.91,0-2-.5-2-2.54V75.64h1.05v3.21c0,1.1.34,1.85,1.3,1.85a1.49,1.49,0,0,0,1.49-1.5V75.64h1.05Z"/><path d="M73.45,78.73a1.86,1.86,0,0,0,2,2,3.82,3.82,0,0,0,1.61-.3l.18.76a4.7,4.7,0,0,1-1.93.36,2.7,2.7,0,0,1-2.85-2.93c0-1.75,1-3.13,2.72-3.13a2.46,2.46,0,0,1,2.4,2.73,4,4,0,0,1,0,.49ZM76.54,78a1.5,1.5,0,0,0-1.46-1.71A1.75,1.75,0,0,0,73.46,78Z"/><rect x="189.44" y="54.44" width="153" height="153" rx="12" ry="12" style="fill:#fbb03b;stroke:#000;stroke-miterlimit:10"/><path d="M208.73,75.64l1.14,3.26a15.13,15.13,0,0,1,.47,1.49h0c.13-.48.3-1,.49-1.49L212,75.64h1.1l-2.28,5.8h-1l-2.21-5.8Z"/><path d="M217.26,81.44l-.08-.73h0a2.16,2.16,0,0,1-1.78.86,1.65,1.65,0,0,1-1.77-1.67c0-1.4,1.25-2.17,3.49-2.16v-.12a1.2,1.2,0,0,0-1.32-1.34,2.9,2.9,0,0,0-1.51.43L214,76a3.6,3.6,0,0,1,1.91-.52c1.78,0,2.21,1.21,2.21,2.37v2.17a8.25,8.25,0,0,0,.1,1.39Zm-.16-3c-1.15,0-2.46.18-2.46,1.31a.93.93,0,0,0,1,1,1.44,1.44,0,0,0,1.4-1,1.1,1.1,0,0,0,.06-.34Z"/><path d="M219.83,77.45c0-.68,0-1.27,0-1.81h.92l0,1.14h0a1.74,1.74,0,0,1,1.61-1.27,1.14,1.14,0,0,1,.3,0v1a1.59,1.59,0,0,0-.36,0,1.48,1.48,0,0,0-1.42,1.36,3,3,0,0,0,0,.49v3.09h-1Z"/><path d="M226.15,80.36a2.76,2.76,0,0,0,1.39.42c.77,0,1.13-.38,1.13-.86s-.3-.78-1.08-1.07c-1-.37-1.54-.95-1.54-1.64a1.79,1.79,0,0,1,2-1.7,2.89,2.89,0,0,1,1.43.36l-.26.77A2.26,2.26,0,0,0,228,76.3c-.62,0-1,.36-1,.79s.35.7,1.1,1c1,.38,1.52.89,1.52,1.75,0,1-.79,1.74-2.17,1.74a3.31,3.31,0,0,1-1.63-.4Z"/><path d="M232.32,74v1.67h1.51v.8h-1.51v3.13c0,.72.2,1.13.79,1.13a2.36,2.36,0,0,0,.61-.07l0,.79a2.58,2.58,0,0,1-.94.14,1.46,1.46,0,0,1-1.14-.44,2.15,2.15,0,0,1-.41-1.51V76.44h-.9v-.8h.9V74.25Z"/><path d="M240.2,78.49a2.84,2.84,0,0,1-2.89,3.08,2.76,2.76,0,0,1-2.78-3,2.83,2.83,0,0,1,2.88-3.08A2.75,2.75,0,0,1,240.2,78.49Zm-4.61.06c0,1.27.73,2.23,1.76,2.23s1.76-.95,1.76-2.25c0-1-.49-2.23-1.74-2.23S235.59,77.45,235.59,78.55Z"/><path d="M241.53,77.45c0-.68,0-1.27,0-1.81h.92l0,1.14h0a1.74,1.74,0,0,1,1.61-1.27,1.15,1.15,0,0,1,.3,0v1a1.59,1.59,0,0,0-.36,0,1.48,1.48,0,0,0-1.42,1.36,3,3,0,0,0,0,.49v3.09h-1Z"/><path d="M245.92,78.73a1.86,1.86,0,0,0,2,2,3.82,3.82,0,0,0,1.61-.3l.18.76a4.7,4.7,0,0,1-1.93.36,2.7,2.7,0,0,1-2.85-2.93c0-1.75,1-3.13,2.72-3.13a2.46,2.46,0,0,1,2.4,2.73,4,4,0,0,1,0,.49ZM249,78a1.5,1.5,0,0,0-1.46-1.71A1.75,1.75,0,0,0,245.94,78Z"/><path d="M253.5,77.4v-.72h6.19v.72Zm0,2.35V79h6.19v.72Z"/><path d="M263,77.69c.85,0,1-.47,1-.89a7,7,0,0,0-.1-1,7,7,0,0,1-.1-1c0-1.1.72-1.57,1.74-1.57h.25v.66h-.22c-.71,0-.95.38-.95,1a5.16,5.16,0,0,0,.08.85,5.61,5.61,0,0,1,.08.91A1.15,1.15,0,0,1,264,78v0a1.15,1.15,0,0,1,.86,1.31,5.49,5.49,0,0,1-.08.91,5.3,5.3,0,0,0-.08.86c0,.67.28,1,.95,1h.22v.66h-.25c-1,0-1.74-.43-1.74-1.64a6.84,6.84,0,0,1,.1-1,6.55,6.55,0,0,0,.1-1c0-.37-.12-.89-1-.89Z"/><path d="M269.29,80.82a.71.71,0,0,1,.72-.76.76.76,0,1,1-.72.76Z"/><path d="M271.77,80.82a.71.71,0,0,1,.72-.76.76.76,0,1,1-.72.76Z"/><path d="M274.26,80.82a.71.71,0,0,1,.72-.76.76.76,0,1,1-.72.76Z"/><path d="M281.73,78.3c-.85,0-1,.52-1,.89a6.68,6.68,0,0,0,.1,1,6.71,6.71,0,0,1,.1,1c0,1.21-.76,1.64-1.74,1.64H279v-.66h.2c.67,0,1-.37,1-1a7.22,7.22,0,0,0-.08-.86,5.46,5.46,0,0,1-.1-.91,1.17,1.17,0,0,1,.86-1.31v0a1.17,1.17,0,0,1-.86-1.29,5.6,5.6,0,0,1,.1-.91,7,7,0,0,0,.08-.85c0-.65-.25-1-.95-1H279v-.66h.24c1,0,1.75.47,1.75,1.57a6.87,6.87,0,0,1-.1,1,7.18,7.18,0,0,0-.1,1c0,.42.12.89,1,.89Z"/><rect x="207.44" y="108.44" width="117" height="27" rx="12" ry="12" style="fill:#fcee21;stroke:#000;stroke-miterlimit:10;stroke-width:0.866025403784439px"/><rect x="207.44" y="162.44" width="117" height="27" rx="12" ry="12" style="fill:#fcee21;stroke:#000;stroke-miterlimit:10;stroke-width:0.866025403784439px"/><path d="M217.17,125.36a2.77,2.77,0,0,0,1.39.42c.77,0,1.13-.38,1.13-.86s-.3-.78-1.08-1.07c-1-.37-1.54-.95-1.54-1.64a1.79,1.79,0,0,1,2-1.7,2.9,2.9,0,0,1,1.43.36l-.26.77a2.26,2.26,0,0,0-1.19-.34c-.62,0-1,.36-1,.79s.35.7,1.1,1c1,.38,1.52.89,1.52,1.75,0,1-.79,1.74-2.17,1.74a3.31,3.31,0,0,1-1.63-.4Z"/><path d="M223.34,119v1.67h1.51v.8h-1.51v3.13c0,.72.2,1.13.79,1.13a2.36,2.36,0,0,0,.61-.07l0,.79a2.58,2.58,0,0,1-.94.14,1.46,1.46,0,0,1-1.14-.44,2.15,2.15,0,0,1-.41-1.51v-3.17h-.9v-.8h.9v-1.39Z"/><path d="M229.26,126.44l-.08-.73h0a2.16,2.16,0,0,1-1.78.86,1.65,1.65,0,0,1-1.77-1.67c0-1.4,1.25-2.17,3.49-2.16v-.12a1.2,1.2,0,0,0-1.32-1.34,2.9,2.9,0,0,0-1.51.43L226,121a3.61,3.61,0,0,1,1.91-.52c1.77,0,2.21,1.21,2.21,2.37v2.17a8.14,8.14,0,0,0,.1,1.39Zm-.16-3c-1.15,0-2.46.18-2.46,1.31a.93.93,0,0,0,1,1,1.45,1.45,0,0,0,1.4-1,1.13,1.13,0,0,0,.06-.34Z"/><path d="M233,119v1.67h1.51v.8H233v3.13c0,.72.2,1.13.79,1.13a2.36,2.36,0,0,0,.61-.07l0,.79a2.59,2.59,0,0,1-.94.14,1.47,1.47,0,0,1-1.14-.44,2.16,2.16,0,0,1-.41-1.51v-3.17h-.9v-.8h.9v-1.39Z"/><path d="M236.27,123.73a1.86,1.86,0,0,0,2,2,3.81,3.81,0,0,0,1.61-.3l.18.76a4.71,4.71,0,0,1-1.93.36,2.7,2.7,0,0,1-2.85-2.93c0-1.75,1-3.13,2.72-3.13a2.46,2.46,0,0,1,2.4,2.73,4,4,0,0,1,0,.49Zm3.09-.76a1.5,1.5,0,0,0-1.46-1.71,1.75,1.75,0,0,0-1.62,1.71Z"/><path d="M241.44,121.6a.71.71,0,1,1,1.43,0,.71.71,0,1,1-1.43,0Zm0,4.23a.71.71,0,1,1,1.43,0,.71.71,0,1,1-1.43,0Z"/><path d="M246.18,122.69c.85,0,1-.47,1-.89a7.33,7.33,0,0,0-.1-1,6.87,6.87,0,0,1-.1-1c0-1.1.72-1.57,1.74-1.57h.25v.66h-.22c-.71,0-.95.38-.95,1a5.38,5.38,0,0,0,.08.85,5.51,5.51,0,0,1,.08.91,1.15,1.15,0,0,1-.86,1.29v0a1.15,1.15,0,0,1,.86,1.31,5.39,5.39,0,0,1-.08.91,5.52,5.52,0,0,0-.08.86c0,.67.28,1,.95,1h.22v.66h-.25c-1,0-1.74-.43-1.74-1.64a6.71,6.71,0,0,1,.1-1,6.82,6.82,0,0,0,.1-1c0-.37-.12-.89-1-.89Z"/><path d="M252.67,122.21c0-.6,0-1.09,0-1.57h.92l0,.94h0a2,2,0,0,1,1.82-1.07,1.72,1.72,0,0,1,1.64,1.16h0a2.38,2.38,0,0,1,.65-.76,2,2,0,0,1,1.28-.41c.77,0,1.91.5,1.91,2.52v3.42h-1v-3.29c0-1.12-.41-1.79-1.26-1.79a1.36,1.36,0,0,0-1.25,1,1.71,1.71,0,0,0-.08.53v3.59h-1V123c0-.92-.41-1.6-1.21-1.6a1.44,1.44,0,0,0-1.31,1.06,1.46,1.46,0,0,0-.08.52v3.5h-1Z"/><path d="M263.26,123.73a1.86,1.86,0,0,0,2,2,3.81,3.81,0,0,0,1.61-.3l.18.76a4.7,4.7,0,0,1-1.93.36,2.7,2.7,0,0,1-2.86-2.93c0-1.75,1-3.13,2.72-3.13a2.46,2.46,0,0,1,2.4,2.73,4,4,0,0,1,0,.49Zm3.09-.76a1.5,1.5,0,0,0-1.46-1.71,1.75,1.75,0,0,0-1.62,1.71Z"/><path d="M268.54,125.36a2.77,2.77,0,0,0,1.39.42c.77,0,1.13-.38,1.13-.86s-.3-.78-1.08-1.07c-1-.37-1.54-.95-1.54-1.64a1.79,1.79,0,0,1,2-1.7,2.9,2.9,0,0,1,1.43.36l-.26.77a2.26,2.26,0,0,0-1.19-.34c-.62,0-1,.36-1,.79s.35.7,1.1,1c1,.38,1.52.89,1.52,1.75,0,1-.79,1.74-2.17,1.74a3.31,3.31,0,0,1-1.63-.4Z"/><path d="M273.3,125.36a2.77,2.77,0,0,0,1.39.42c.77,0,1.13-.38,1.13-.86s-.3-.78-1.08-1.07c-1-.37-1.54-.95-1.54-1.64a1.79,1.79,0,0,1,2-1.7,2.9,2.9,0,0,1,1.43.36l-.26.77a2.26,2.26,0,0,0-1.19-.34c-.62,0-1,.36-1,.79s.35.7,1.1,1c1,.38,1.52.89,1.52,1.75,0,1-.79,1.74-2.17,1.74a3.31,3.31,0,0,1-1.63-.4Z"/><path d="M281.41,126.44l-.08-.73h0a2.16,2.16,0,0,1-1.77.86,1.65,1.65,0,0,1-1.78-1.67c0-1.4,1.25-2.17,3.49-2.16v-.12a1.2,1.2,0,0,0-1.32-1.34,2.89,2.89,0,0,0-1.51.43l-.24-.7a3.6,3.6,0,0,1,1.91-.52c1.78,0,2.21,1.21,2.21,2.37v2.17a8.15,8.15,0,0,0,.1,1.39Zm-.16-3c-1.15,0-2.46.18-2.46,1.31a.94.94,0,0,0,1,1,1.44,1.44,0,0,0,1.4-1,1.1,1.1,0,0,0,.06-.34Z"/><path d="M289,120.64c0,.42,0,.89,0,1.6v3.37a3.34,3.34,0,0,1-.83,2.65,3.08,3.08,0,0,1-2.11.7,3.74,3.74,0,0,1-1.93-.48l.26-.8a3.27,3.27,0,0,0,1.7.46c1.08,0,1.87-.56,1.87-2v-.65h0a2.07,2.07,0,0,1-1.85,1,2.59,2.59,0,0,1-2.47-2.83,2.79,2.79,0,0,1,2.61-3.08,1.93,1.93,0,0,1,1.81,1h0l0-.88Zm-1.09,2.29a1.5,1.5,0,0,0-.06-.48,1.52,1.52,0,0,0-1.48-1.12c-1,0-1.73.85-1.73,2.19,0,1.14.58,2.09,1.72,2.09a1.54,1.54,0,0,0,1.46-1.08,1.85,1.85,0,0,0,.08-.56Z"/><path d="M291.27,123.73a1.86,1.86,0,0,0,2,2,3.82,3.82,0,0,0,1.61-.3l.18.76a4.69,4.69,0,0,1-1.93.36,2.7,2.7,0,0,1-2.85-2.93c0-1.75,1-3.13,2.72-3.13a2.46,2.46,0,0,1,2.4,2.73,4.07,4.07,0,0,1,0,.49Zm3.09-.76a1.5,1.5,0,0,0-1.46-1.71,1.75,1.75,0,0,0-1.62,1.71Z"/><path d="M296.55,125.36a2.77,2.77,0,0,0,1.39.42c.77,0,1.13-.38,1.13-.86s-.3-.78-1.08-1.07c-1-.37-1.54-.95-1.54-1.64a1.79,1.79,0,0,1,2-1.7,2.9,2.9,0,0,1,1.43.36l-.26.77a2.26,2.26,0,0,0-1.19-.34c-.62,0-1,.36-1,.79s.35.7,1.1,1c1,.38,1.52.89,1.52,1.75,0,1-.79,1.74-2.17,1.74a3.31,3.31,0,0,1-1.63-.4Z"/><path d="M303.74,125.82a.71.71,0,0,1,.72-.76.76.76,0,1,1-.72.76Z"/><path d="M306.22,125.82a.71.71,0,0,1,.72-.76.76.76,0,0,1,0,1.51A.71.71,0,0,1,306.22,125.82Z"/><path d="M308.71,125.82a.71.71,0,0,1,.72-.76.76.76,0,1,1-.72.76Z"/><path d="M316.18,123.3c-.85,0-1,.52-1,.89a6.55,6.55,0,0,0,.1,1,7,7,0,0,1,.1,1c0,1.21-.76,1.64-1.74,1.64h-.25v-.66h.2c.67,0,1-.37,1-1a7.22,7.22,0,0,0-.08-.86,5.46,5.46,0,0,1-.1-.91,1.17,1.17,0,0,1,.86-1.31v0a1.17,1.17,0,0,1-.86-1.29,5.6,5.6,0,0,1,.1-.91,7,7,0,0,0,.08-.85c0-.65-.25-1-.95-1h-.22v-.66h.24c1,0,1.75.47,1.75,1.57a7.16,7.16,0,0,1-.1,1,7,7,0,0,0-.1,1c0,.42.12.89,1,.89Z"/><path d="M217.32,176.21c0-.6,0-1.09,0-1.57h.94l.06,1h0a2.13,2.13,0,0,1,1.92-1.09c.8,0,2.05.48,2.05,2.47v3.47H221.2V177.1c0-.94-.35-1.71-1.34-1.71a1.5,1.5,0,0,0-1.42,1.08,1.52,1.52,0,0,0-.07.49v3.49h-1.06Z"/><path d="M224.56,177.73a1.86,1.86,0,0,0,2,2,3.81,3.81,0,0,0,1.61-.3l.18.76a4.7,4.7,0,0,1-1.93.36,2.7,2.7,0,0,1-2.86-2.93c0-1.75,1-3.13,2.72-3.13a2.46,2.46,0,0,1,2.4,2.73,4,4,0,0,1,0,.49Zm3.09-.76a1.5,1.5,0,0,0-1.46-1.71,1.75,1.75,0,0,0-1.62,1.71Z"/><path d="M230.41,174.64l.77,3c.17.65.32,1.25.43,1.85h0c.13-.59.32-1.21.52-1.83l.95-3H234l.9,2.9c.21.7.38,1.31.52,1.9h0a17.52,17.52,0,0,1,.44-1.88l.83-2.91h1l-1.87,5.8h-1l-.89-2.77a19.17,19.17,0,0,1-.52-1.91h0a16.89,16.89,0,0,1-.53,1.92l-.94,2.76h-1l-1.75-5.8Z"/><path d="M245.67,176.89c-.06-1.13-.13-2.48-.12-3.49h0c-.28.95-.61,2-1,3.07l-1.43,3.92h-.79L241,176.54c-.38-1.14-.71-2.18-.94-3.14h0c0,1-.08,2.36-.16,3.57l-.21,3.47h-1l.56-8.08h1.33l1.38,3.91c.34,1,.61,1.88.82,2.72h0c.2-.82.49-1.7.85-2.72l1.44-3.91h1.33l.5,8.08h-1Z"/><path d="M249.13,177.73a1.86,1.86,0,0,0,2,2,3.82,3.82,0,0,0,1.61-.3l.18.76a4.7,4.7,0,0,1-1.93.36,2.7,2.7,0,0,1-2.85-2.93c0-1.75,1-3.13,2.72-3.13a2.46,2.46,0,0,1,2.4,2.73,4,4,0,0,1,0,.49Zm3.09-.76a1.5,1.5,0,0,0-1.46-1.71,1.75,1.75,0,0,0-1.62,1.71Z"/><path d="M254.41,179.36a2.77,2.77,0,0,0,1.39.42c.77,0,1.13-.38,1.13-.86s-.3-.78-1.08-1.07c-1-.37-1.54-.95-1.54-1.64a1.79,1.79,0,0,1,2-1.7,2.9,2.9,0,0,1,1.43.36l-.26.77a2.26,2.26,0,0,0-1.19-.34c-.62,0-1,.36-1,.79s.35.7,1.1,1c1,.38,1.52.89,1.52,1.75,0,1-.79,1.74-2.17,1.74a3.31,3.31,0,0,1-1.63-.4Z"/><path d="M259.16,179.36a2.77,2.77,0,0,0,1.39.42c.77,0,1.13-.38,1.13-.86s-.3-.78-1.08-1.07c-1-.37-1.54-.95-1.54-1.64a1.79,1.79,0,0,1,2-1.7,2.9,2.9,0,0,1,1.43.36l-.26.77a2.26,2.26,0,0,0-1.19-.34c-.62,0-1,.36-1,.79s.35.7,1.1,1c1,.38,1.52.89,1.52,1.75,0,1-.79,1.74-2.17,1.74a3.31,3.31,0,0,1-1.63-.4Z"/><path d="M267.27,180.44l-.08-.73h0a2.16,2.16,0,0,1-1.78.86,1.65,1.65,0,0,1-1.77-1.67c0-1.4,1.25-2.17,3.49-2.16v-.12a1.2,1.2,0,0,0-1.32-1.34,2.9,2.9,0,0,0-1.51.43L264,175a3.61,3.61,0,0,1,1.91-.52c1.77,0,2.21,1.21,2.21,2.37v2.17a8.14,8.14,0,0,0,.1,1.39Zm-.16-3c-1.15,0-2.46.18-2.46,1.31a.93.93,0,0,0,1,1,1.45,1.45,0,0,0,1.4-1,1.13,1.13,0,0,0,.06-.34Z"/><path d="M274.84,174.64c0,.42,0,.89,0,1.6v3.37a3.34,3.34,0,0,1-.83,2.65,3.08,3.08,0,0,1-2.11.7,3.75,3.75,0,0,1-1.93-.48l.26-.8a3.28,3.28,0,0,0,1.7.46c1.08,0,1.87-.56,1.87-2v-.65h0a2.07,2.07,0,0,1-1.85,1,2.6,2.6,0,0,1-2.47-2.83,2.79,2.79,0,0,1,2.62-3.08,1.93,1.93,0,0,1,1.81,1h0l0-.88Zm-1.09,2.29a1.5,1.5,0,0,0-.06-.48,1.52,1.52,0,0,0-1.48-1.12c-1,0-1.73.85-1.73,2.19,0,1.14.58,2.09,1.71,2.09a1.54,1.54,0,0,0,1.46-1.08,1.82,1.82,0,0,0,.08-.56Z"/><path d="M277.14,177.73a1.86,1.86,0,0,0,2,2,3.81,3.81,0,0,0,1.61-.3l.18.76a4.71,4.71,0,0,1-1.93.36,2.7,2.7,0,0,1-2.85-2.93c0-1.75,1-3.13,2.72-3.13a2.46,2.46,0,0,1,2.4,2.73,4,4,0,0,1,0,.49Zm3.09-.76a1.5,1.5,0,0,0-1.46-1.71,1.75,1.75,0,0,0-1.62,1.71Z"/><path d="M284.85,172.12a7.91,7.91,0,0,0-1.51,4.91,8.09,8.09,0,0,0,1.51,4.87H284a7.75,7.75,0,0,1-1.57-4.87,7.92,7.92,0,0,1,1.57-4.91Z"/><path d="M286,176.21c0-.6,0-1.09,0-1.57h.92l0,.94h0a2,2,0,0,1,1.82-1.07,1.72,1.72,0,0,1,1.64,1.16h0a2.39,2.39,0,0,1,.65-.76,2,2,0,0,1,1.28-.41c.77,0,1.91.5,1.91,2.52v3.42h-1v-3.29c0-1.12-.41-1.79-1.26-1.79a1.37,1.37,0,0,0-1.25,1,1.77,1.77,0,0,0-.08.53v3.59h-1V177c0-.92-.41-1.6-1.21-1.6a1.44,1.44,0,0,0-1.31,1.06,1.46,1.46,0,0,0-.08.52v3.5h-1Z"/><path d="M295.83,179.36a2.77,2.77,0,0,0,1.39.42c.77,0,1.13-.38,1.13-.86s-.3-.78-1.08-1.07c-1-.37-1.54-.95-1.54-1.64a1.79,1.79,0,0,1,2-1.7,2.9,2.9,0,0,1,1.43.36l-.26.77a2.26,2.26,0,0,0-1.19-.34c-.62,0-1,.36-1,.79s.35.7,1.1,1c1,.38,1.52.89,1.52,1.75,0,1-.79,1.74-2.17,1.74a3.31,3.31,0,0,1-1.63-.4Z"/><path d="M305.73,174.64c0,.42,0,.89,0,1.6v3.37a3.34,3.34,0,0,1-.83,2.65,3.08,3.08,0,0,1-2.11.7,3.74,3.74,0,0,1-1.93-.48l.26-.8a3.27,3.27,0,0,0,1.7.46c1.08,0,1.87-.56,1.87-2v-.65h0a2.07,2.07,0,0,1-1.85,1,2.59,2.59,0,0,1-2.47-2.83,2.79,2.79,0,0,1,2.61-3.08,1.93,1.93,0,0,1,1.81,1h0l0-.88Zm-1.09,2.29a1.5,1.5,0,0,0-.06-.48,1.52,1.52,0,0,0-1.48-1.12c-1,0-1.73.85-1.73,2.19,0,1.14.58,2.09,1.72,2.09a1.54,1.54,0,0,0,1.46-1.08,1.85,1.85,0,0,0,.08-.56Z"/><path d="M306.8,181.89a8.12,8.12,0,0,0,1.51-4.91,7.94,7.94,0,0,0-1.51-4.87h.82a7.64,7.64,0,0,1,1.57,4.88,7.78,7.78,0,0,1-1.57,4.89Z"/><rect x="72.44" y="261.44" width="216" height="117" rx="12" ry="12" style="fill:#8cc63f;stroke:#000;stroke-miterlimit:10;stroke-width:1.2747548783981966px"/><path d="M97,288.18a5.19,5.19,0,0,1-2.13.38,3.78,3.78,0,0,1-4-4.09,4,4,0,0,1,4.22-4.25,4.32,4.32,0,0,1,1.92.36l-.25.85a3.79,3.79,0,0,0-1.63-.34A3,3,0,0,0,92,284.44a2.94,2.94,0,0,0,3.11,3.25,4.17,4.17,0,0,0,1.7-.34Z"/><path d="M98.28,279.93h1.06v8.52H98.28Z"/><path d="M102.28,281a.65.65,0,0,1-1.31,0,.64.64,0,0,1,.66-.66A.63.63,0,0,1,102.28,281Zm-1.18,7.44v-5.8h1.06v5.8Z"/><path d="M104.5,285.73a1.86,1.86,0,0,0,2,2,3.81,3.81,0,0,0,1.61-.3l.18.75a4.7,4.7,0,0,1-1.93.36,2.7,2.7,0,0,1-2.85-2.93c0-1.75,1-3.13,2.72-3.13a2.46,2.46,0,0,1,2.4,2.73,4,4,0,0,1,0,.49Zm3.09-.75a1.5,1.5,0,0,0-1.46-1.72,1.75,1.75,0,0,0-1.62,1.72Z"/><path d="M109.93,284.21c0-.6,0-1.09,0-1.57h.94l.06,1h0a2.13,2.13,0,0,1,1.92-1.09c.8,0,2.05.48,2.05,2.47v3.47h-1.06V285.1c0-.94-.35-1.72-1.34-1.72a1.5,1.5,0,0,0-1.42,1.08,1.52,1.52,0,0,0-.07.49v3.49h-1.06Z"/><path d="M117.81,281v1.67h1.51v.8h-1.51v3.13c0,.72.2,1.13.79,1.13a2.33,2.33,0,0,0,.61-.07l0,.79a2.58,2.58,0,0,1-.94.14,1.46,1.46,0,0,1-1.14-.44,2.15,2.15,0,0,1-.41-1.51v-3.17h-.9v-.8h.9v-1.39Z"/><path d="M120.23,287.82a.71.71,0,0,1,.72-.75.76.76,0,1,1-.72.75Z"/><path d="M123.37,282.64l1.14,3.26a15,15,0,0,1,.47,1.49h0c.13-.48.3-1,.49-1.49l1.13-3.26h1.1l-2.28,5.8h-1l-2.21-5.8Z"/><path d="M133.59,286.86c0,.6,0,1.13,0,1.58h-.94l-.06-.95h0a2.18,2.18,0,0,1-1.92,1.08c-.91,0-2-.5-2-2.54v-3.39h1.06v3.21c0,1.1.34,1.85,1.3,1.85a1.53,1.53,0,0,0,1.39-1,1.54,1.54,0,0,0,.1-.54v-3.56h1.06Z"/><path d="M135.93,285.73a1.86,1.86,0,0,0,2,2,3.81,3.81,0,0,0,1.61-.3l.18.75a4.7,4.7,0,0,1-1.93.36,2.7,2.7,0,0,1-2.85-2.93c0-1.75,1-3.13,2.72-3.13a2.46,2.46,0,0,1,2.4,2.73,4,4,0,0,1,0,.49ZM139,285a1.5,1.5,0,0,0-1.46-1.72,1.75,1.75,0,0,0-1.62,1.72Z"/><path d="M91.32,313c0-.6,0-1.09,0-1.57h.92l0,.94h0a2,2,0,0,1,1.82-1.07,1.72,1.72,0,0,1,1.64,1.16h0a2.39,2.39,0,0,1,.65-.76,2,2,0,0,1,1.28-.41c.77,0,1.91.5,1.91,2.52v3.42h-1V314c0-1.12-.41-1.79-1.26-1.79a1.37,1.37,0,0,0-1.25,1,1.73,1.73,0,0,0-.08.53v3.59H95v-3.48c0-.92-.41-1.59-1.21-1.59a1.44,1.44,0,0,0-1.31,1.06,1.46,1.46,0,0,0-.08.52v3.5h-1Z"/><path d="M101.91,314.53a1.86,1.86,0,0,0,2,2,3.81,3.81,0,0,0,1.61-.3l.18.75a4.7,4.7,0,0,1-1.93.36,2.7,2.7,0,0,1-2.85-2.93c0-1.75,1-3.13,2.72-3.13A2.46,2.46,0,0,1,106,314a4,4,0,0,1,0,.49Zm3.09-.75a1.5,1.5,0,0,0-1.46-1.71,1.75,1.75,0,0,0-1.62,1.71Z"/><path d="M107.19,316.16a2.78,2.78,0,0,0,1.39.42c.77,0,1.13-.38,1.13-.86s-.3-.78-1.08-1.07c-1-.37-1.54-.95-1.54-1.64a1.79,1.79,0,0,1,2-1.7,2.9,2.9,0,0,1,1.43.36l-.26.77a2.26,2.26,0,0,0-1.19-.34c-.62,0-1,.36-1,.79s.35.7,1.1,1c1,.38,1.52.89,1.52,1.75,0,1-.79,1.74-2.17,1.74a3.32,3.32,0,0,1-1.63-.4Z"/><path d="M111.95,316.16a2.78,2.78,0,0,0,1.39.42c.77,0,1.13-.38,1.13-.86s-.3-.78-1.08-1.07c-1-.37-1.54-.95-1.54-1.64a1.79,1.79,0,0,1,2-1.7,2.9,2.9,0,0,1,1.43.36l-.26.77a2.26,2.26,0,0,0-1.19-.34c-.62,0-1,.36-1,.79s.35.7,1.1,1c1,.38,1.52.89,1.52,1.75,0,1-.79,1.74-2.17,1.74a3.32,3.32,0,0,1-1.63-.4Z"/><path d="M120.06,317.24l-.08-.73h0a2.16,2.16,0,0,1-1.77.86,1.65,1.65,0,0,1-1.77-1.67c0-1.4,1.25-2.17,3.49-2.16v-.12a1.2,1.2,0,0,0-1.32-1.34,2.89,2.89,0,0,0-1.51.43l-.24-.7a3.61,3.61,0,0,1,1.91-.52c1.77,0,2.21,1.21,2.21,2.37v2.17a8.14,8.14,0,0,0,.1,1.39Zm-.16-3c-1.15,0-2.46.18-2.46,1.31a.93.93,0,0,0,1,1,1.44,1.44,0,0,0,1.4-1,1.11,1.11,0,0,0,.06-.34Z"/><path d="M127.63,311.44c0,.42,0,.89,0,1.59v3.37a3.34,3.34,0,0,1-.83,2.65,3.08,3.08,0,0,1-2.11.7,3.75,3.75,0,0,1-1.93-.48l.26-.8a3.28,3.28,0,0,0,1.7.46c1.08,0,1.87-.56,1.87-2v-.65h0a2.07,2.07,0,0,1-1.85,1,2.59,2.59,0,0,1-2.47-2.83,2.79,2.79,0,0,1,2.61-3.08,1.93,1.93,0,0,1,1.81,1h0l0-.87Zm-1.09,2.29a1.54,1.54,0,0,0-1.54-1.6c-1,0-1.73.85-1.73,2.2,0,1.14.58,2.09,1.72,2.09a1.54,1.54,0,0,0,1.46-1.08,1.83,1.83,0,0,0,.08-.56Z"/><path d="M129.92,314.53a1.86,1.86,0,0,0,2,2,3.81,3.81,0,0,0,1.61-.3l.18.75a4.7,4.7,0,0,1-1.93.36,2.7,2.7,0,0,1-2.85-2.93c0-1.75,1-3.13,2.72-3.13A2.46,2.46,0,0,1,134,314a4,4,0,0,1,0,.49Zm3.09-.75a1.5,1.5,0,0,0-1.46-1.71,1.75,1.75,0,0,0-1.62,1.71Z"/><path d="M135.2,316.16a2.78,2.78,0,0,0,1.39.42c.77,0,1.13-.38,1.13-.86s-.3-.78-1.08-1.07c-1-.37-1.54-.95-1.54-1.64a1.79,1.79,0,0,1,2-1.7,2.9,2.9,0,0,1,1.43.36l-.26.77a2.26,2.26,0,0,0-1.19-.34c-.62,0-1,.36-1,.79s.35.7,1.1,1c1,.38,1.52.89,1.52,1.75,0,1-.79,1.74-2.17,1.74a3.32,3.32,0,0,1-1.63-.4Z"/><path d="M142.24,313.2v-.72h6.19v.72Zm0,2.35v-.72h6.19v.72Z"/><path d="M152.19,316.16a2.78,2.78,0,0,0,1.39.42c.77,0,1.13-.38,1.13-.86s-.3-.78-1.08-1.07c-1-.37-1.54-.95-1.54-1.64a1.79,1.79,0,0,1,2-1.7,2.9,2.9,0,0,1,1.43.36l-.26.77a2.26,2.26,0,0,0-1.19-.34c-.62,0-1,.36-1,.79s.35.7,1.1,1c1,.38,1.52.89,1.52,1.75,0,1-.79,1.74-2.17,1.74a3.32,3.32,0,0,1-1.63-.4Z"/><path d="M158.36,309.77v1.67h1.51v.8h-1.51v3.13c0,.72.2,1.13.79,1.13a2.34,2.34,0,0,0,.61-.07l0,.79a2.58,2.58,0,0,1-.94.14,1.46,1.46,0,0,1-1.14-.44,2.15,2.15,0,0,1-.41-1.51v-3.17h-.9v-.8h.9V310Z"/><path d="M166.24,314.29a2.84,2.84,0,0,1-2.89,3.08,2.76,2.76,0,0,1-2.78-3,2.83,2.83,0,0,1,2.88-3.08A2.75,2.75,0,0,1,166.24,314.29Zm-4.61.06c0,1.27.73,2.23,1.76,2.23s1.76-.95,1.76-2.25c0-1-.49-2.23-1.74-2.23S161.64,313.25,161.64,314.35Z"/><path d="M167.58,313.25c0-.68,0-1.27,0-1.81h.92l0,1.14h0a1.74,1.74,0,0,1,1.61-1.27,1.13,1.13,0,0,1,.3,0v1a1.57,1.57,0,0,0-.36,0,1.48,1.48,0,0,0-1.42,1.36,3,3,0,0,0,0,.49v3.09h-1Z"/><path d="M172,314.53a1.86,1.86,0,0,0,2,2,3.81,3.81,0,0,0,1.61-.3l.18.75a4.7,4.7,0,0,1-1.93.36,2.7,2.7,0,0,1-2.85-2.93c0-1.75,1-3.13,2.72-3.13a2.46,2.46,0,0,1,2.4,2.73,4,4,0,0,1,0,.49Zm3.09-.75a1.5,1.5,0,0,0-1.46-1.71,1.75,1.75,0,0,0-1.62,1.71Z"/><path d="M177,316.62a.71.71,0,0,1,.72-.75.76.76,0,0,1,0,1.51A.71.71,0,0,1,177,316.62Z"/><path d="M179.59,316.16a2.78,2.78,0,0,0,1.39.42c.77,0,1.13-.38,1.13-.86s-.3-.78-1.08-1.07c-1-.37-1.54-.95-1.54-1.64a1.79,1.79,0,0,1,2-1.7,2.9,2.9,0,0,1,1.43.36l-.26.77a2.26,2.26,0,0,0-1.19-.34c-.62,0-1,.36-1,.79s.35.7,1.1,1c1,.38,1.52.89,1.52,1.75,0,1-.79,1.74-2.17,1.74a3.32,3.32,0,0,1-1.63-.4Z"/><path d="M185.76,309.77v1.67h1.51v.8h-1.51v3.13c0,.72.2,1.13.79,1.13a2.34,2.34,0,0,0,.61-.07l0,.79a2.59,2.59,0,0,1-.94.14,1.46,1.46,0,0,1-1.14-.44,2.15,2.15,0,0,1-.41-1.51v-3.17h-.9v-.8h.9V310Z"/><path d="M191.67,317.24l-.08-.73h0a2.16,2.16,0,0,1-1.77.86,1.65,1.65,0,0,1-1.78-1.67c0-1.4,1.25-2.17,3.49-2.16v-.12a1.2,1.2,0,0,0-1.32-1.34,2.89,2.89,0,0,0-1.51.43l-.24-.7a3.6,3.6,0,0,1,1.91-.52c1.78,0,2.21,1.21,2.21,2.37v2.17a8.14,8.14,0,0,0,.1,1.39Zm-.16-3c-1.15,0-2.46.18-2.46,1.31a.94.94,0,0,0,1,1,1.44,1.44,0,0,0,1.4-1,1.1,1.1,0,0,0,.06-.34Z"/><path d="M195.46,309.77v1.67H197v.8h-1.51v3.13c0,.72.2,1.13.79,1.13a2.34,2.34,0,0,0,.61-.07l0,.79a2.58,2.58,0,0,1-.94.14,1.46,1.46,0,0,1-1.14-.44,2.15,2.15,0,0,1-.41-1.51v-3.17h-.9v-.8h.9V310Z"/><path d="M198.68,314.53a1.86,1.86,0,0,0,2,2,3.82,3.82,0,0,0,1.61-.3l.18.75a4.7,4.7,0,0,1-1.93.36,2.7,2.7,0,0,1-2.85-2.93c0-1.75,1-3.13,2.72-3.13a2.46,2.46,0,0,1,2.4,2.73,4,4,0,0,1,0,.49Zm3.09-.75a1.5,1.5,0,0,0-1.46-1.71,1.75,1.75,0,0,0-1.62,1.71Z"/><path d="M203.71,316.62a.71.71,0,0,1,.72-.75.76.76,0,0,1,0,1.51A.71.71,0,0,1,203.71,316.62Z"/><path d="M206.44,313c0-.6,0-1.09,0-1.57h.92l0,.94h0a2,2,0,0,1,1.82-1.07,1.72,1.72,0,0,1,1.64,1.16h0a2.39,2.39,0,0,1,.65-.76,2,2,0,0,1,1.28-.41c.77,0,1.91.5,1.91,2.52v3.42h-1V314c0-1.12-.41-1.79-1.26-1.79a1.36,1.36,0,0,0-1.25,1,1.71,1.71,0,0,0-.08.53v3.59h-1v-3.48c0-.92-.41-1.59-1.21-1.59a1.44,1.44,0,0,0-1.31,1.06,1.46,1.46,0,0,0-.08.52v3.5h-1Z"/><path d="M217,314.53a1.86,1.86,0,0,0,2,2,3.82,3.82,0,0,0,1.61-.3l.18.75a4.69,4.69,0,0,1-1.93.36,2.7,2.7,0,0,1-2.85-2.93c0-1.75,1-3.13,2.72-3.13a2.46,2.46,0,0,1,2.4,2.73,4.05,4.05,0,0,1,0,.49Zm3.09-.75a1.5,1.5,0,0,0-1.46-1.71,1.75,1.75,0,0,0-1.62,1.71Z"/><path d="M222.32,316.16a2.78,2.78,0,0,0,1.39.42c.77,0,1.13-.38,1.13-.86s-.3-.78-1.08-1.07c-1-.37-1.54-.95-1.54-1.64a1.79,1.79,0,0,1,2-1.7,2.91,2.91,0,0,1,1.43.36l-.26.77a2.26,2.26,0,0,0-1.19-.34c-.62,0-1,.36-1,.79s.35.7,1.1,1c1,.38,1.52.89,1.52,1.75,0,1-.79,1.74-2.17,1.74a3.31,3.31,0,0,1-1.63-.4Z"/><path d="M227.07,316.16a2.78,2.78,0,0,0,1.39.42c.77,0,1.13-.38,1.13-.86s-.3-.78-1.08-1.07c-1-.37-1.54-.95-1.54-1.64a1.79,1.79,0,0,1,2-1.7,2.91,2.91,0,0,1,1.43.36l-.26.77a2.26,2.26,0,0,0-1.19-.34c-.62,0-1,.36-1,.79s.35.7,1.1,1c1,.38,1.52.89,1.52,1.75,0,1-.79,1.74-2.17,1.74a3.31,3.31,0,0,1-1.63-.4Z"/><path d="M235.18,317.24l-.08-.73h0a2.16,2.16,0,0,1-1.77.86,1.65,1.65,0,0,1-1.78-1.67c0-1.4,1.25-2.17,3.49-2.16v-.12a1.2,1.2,0,0,0-1.32-1.34,2.89,2.89,0,0,0-1.51.43l-.24-.7a3.6,3.6,0,0,1,1.91-.52c1.78,0,2.21,1.21,2.21,2.37v2.17a8.14,8.14,0,0,0,.1,1.39Zm-.16-3c-1.15,0-2.46.18-2.46,1.31a.94.94,0,0,0,1,1,1.44,1.44,0,0,0,1.4-1,1.1,1.1,0,0,0,.06-.34Z"/><path d="M242.75,311.44c0,.42,0,.89,0,1.59v3.37a3.34,3.34,0,0,1-.83,2.65,3.08,3.08,0,0,1-2.11.7,3.75,3.75,0,0,1-1.93-.48l.26-.8a3.28,3.28,0,0,0,1.7.46c1.08,0,1.87-.56,1.87-2v-.65h0a2.07,2.07,0,0,1-1.85,1,2.59,2.59,0,0,1-2.47-2.83,2.79,2.79,0,0,1,2.61-3.08,1.93,1.93,0,0,1,1.81,1h0l0-.87Zm-1.09,2.29a1.54,1.54,0,0,0-.06-.48,1.52,1.52,0,0,0-1.48-1.12c-1,0-1.73.85-1.73,2.2,0,1.14.58,2.09,1.71,2.09a1.54,1.54,0,0,0,1.46-1.08,1.85,1.85,0,0,0,.08-.56Z"/><path d="M245,314.53a1.86,1.86,0,0,0,2,2,3.82,3.82,0,0,0,1.61-.3l.18.75a4.69,4.69,0,0,1-1.93.36,2.7,2.7,0,0,1-2.85-2.93c0-1.75,1-3.13,2.72-3.13a2.46,2.46,0,0,1,2.4,2.73,4.05,4.05,0,0,1,0,.49Zm3.09-.75a1.5,1.5,0,0,0-1.46-1.71,1.75,1.75,0,0,0-1.62,1.71Z"/><path d="M250.33,316.16a2.78,2.78,0,0,0,1.39.42c.77,0,1.13-.38,1.13-.86s-.3-.78-1.08-1.07c-1-.37-1.54-.95-1.54-1.64a1.79,1.79,0,0,1,2-1.7,2.9,2.9,0,0,1,1.43.36l-.26.77a2.25,2.25,0,0,0-1.19-.34c-.62,0-1,.36-1,.79s.35.7,1.1,1c1,.38,1.52.89,1.52,1.75,0,1-.79,1.74-2.17,1.74a3.32,3.32,0,0,1-1.63-.4Z"/><path d="M92.59,324.17v1.67H94.1v.8H92.59v3.13c0,.72.2,1.13.79,1.13a2.33,2.33,0,0,0,.61-.07l0,.79a2.58,2.58,0,0,1-.94.14,1.46,1.46,0,0,1-1.14-.44,2.15,2.15,0,0,1-.41-1.51v-3.17h-.9v-.8h.9v-1.39Z"/><path d="M95.29,327.65c0-.68,0-1.27,0-1.81h.92l0,1.14h0a1.74,1.74,0,0,1,1.61-1.27,1.13,1.13,0,0,1,.3,0v1a1.57,1.57,0,0,0-.36,0,1.48,1.48,0,0,0-1.42,1.36,3,3,0,0,0,0,.49v3.09h-1Z"/><path d="M99.9,325.84l1.27,3.43c.13.38.28.84.37,1.19h0c.11-.35.23-.79.37-1.21l1.15-3.41h1.12L102.62,330c-.76,2-1.27,3-2,3.63a2.85,2.85,0,0,1-1.29.68l-.26-.89a2.8,2.8,0,0,0,.92-.52,3.2,3.2,0,0,0,.89-1.17.77.77,0,0,0,.08-.25.92.92,0,0,0-.07-.28l-2.15-5.35Z"/><path d="M105.06,330.37a3.7,3.7,0,0,0,1.87.53c1.07,0,1.69-.56,1.69-1.38s-.43-1.19-1.52-1.61c-1.32-.47-2.13-1.15-2.13-2.29a2.33,2.33,0,0,1,2.61-2.2,3.67,3.67,0,0,1,1.79.4l-.29.85a3.21,3.21,0,0,0-1.54-.38c-1.1,0-1.52.66-1.52,1.21,0,.76.49,1.13,1.61,1.56,1.37.53,2.06,1.19,2.06,2.37s-.92,2.33-2.83,2.33a4.18,4.18,0,0,1-2.06-.52Z"/><path d="M111.74,328.93a1.86,1.86,0,0,0,2,2,3.81,3.81,0,0,0,1.61-.3l.18.75a4.7,4.7,0,0,1-1.93.36,2.7,2.7,0,0,1-2.85-2.93c0-1.75,1-3.13,2.72-3.13a2.46,2.46,0,0,1,2.4,2.73,4,4,0,0,1,0,.49Zm3.09-.75a1.5,1.5,0,0,0-1.46-1.71,1.75,1.75,0,0,0-1.62,1.71Z"/><path d="M117.17,327.41c0-.6,0-1.09,0-1.57h.94l.06,1h0a2.13,2.13,0,0,1,1.92-1.09c.8,0,2.05.48,2.05,2.47v3.47h-1.06V328.3c0-.94-.35-1.72-1.34-1.72a1.5,1.5,0,0,0-1.42,1.08,1.52,1.52,0,0,0-.07.49v3.49h-1.06Z"/><path d="M128.84,323.13v7c0,.52,0,1.1,0,1.5h-.95l0-1h0a2.15,2.15,0,0,1-2,1.14c-1.4,0-2.48-1.19-2.48-3,0-1.93,1.19-3.12,2.6-3.12a1.94,1.94,0,0,1,1.75.89h0v-3.47Zm-1.06,5.07a1.85,1.85,0,0,0,0-.44,1.55,1.55,0,0,0-1.52-1.22c-1.09,0-1.74,1-1.74,2.24s.58,2.15,1.72,2.15a1.59,1.59,0,0,0,1.55-1.26,1.83,1.83,0,0,0,0-.46Z"/><path d="M137.44,328.09c-.06-1.13-.13-2.48-.12-3.49h0c-.28.95-.61,2-1,3.07l-1.43,3.92H134l-1.31-3.85c-.38-1.14-.71-2.18-.94-3.14h0c0,1-.08,2.36-.16,3.57l-.22,3.47h-1l.56-8.08h1.33l1.38,3.91c.34,1,.61,1.88.82,2.72h0c.2-.82.49-1.7.85-2.72l1.44-3.91h1.33l.5,8.08h-1Z"/><path d="M140.9,328.93a1.86,1.86,0,0,0,2,2,3.81,3.81,0,0,0,1.61-.3l.18.75a4.7,4.7,0,0,1-1.93.36,2.7,2.7,0,0,1-2.85-2.93c0-1.75,1-3.13,2.72-3.13a2.46,2.46,0,0,1,2.4,2.73,4,4,0,0,1,0,.49Zm3.09-.75a1.5,1.5,0,0,0-1.46-1.71,1.75,1.75,0,0,0-1.62,1.71Z"/><path d="M146.18,330.56a2.78,2.78,0,0,0,1.39.42c.77,0,1.13-.38,1.13-.86s-.3-.78-1.08-1.07c-1-.37-1.54-.95-1.54-1.64a1.79,1.79,0,0,1,2-1.7,2.9,2.9,0,0,1,1.43.36l-.26.77a2.26,2.26,0,0,0-1.19-.34c-.62,0-1,.36-1,.79s.35.7,1.1,1c1,.38,1.52.89,1.52,1.75,0,1-.79,1.74-2.17,1.74a3.32,3.32,0,0,1-1.63-.4Z"/><path d="M150.93,330.56a2.78,2.78,0,0,0,1.39.42c.77,0,1.13-.38,1.13-.86s-.3-.78-1.08-1.07c-1-.37-1.54-.95-1.54-1.64a1.79,1.79,0,0,1,2-1.7,2.9,2.9,0,0,1,1.43.36l-.26.77a2.26,2.26,0,0,0-1.19-.34c-.62,0-1,.36-1,.79s.35.7,1.1,1c1,.38,1.52.89,1.52,1.75,0,1-.79,1.74-2.17,1.74a3.32,3.32,0,0,1-1.63-.4Z"/><path d="M159,331.64l-.08-.73h0a2.16,2.16,0,0,1-1.77.86,1.65,1.65,0,0,1-1.77-1.67c0-1.4,1.25-2.17,3.49-2.16v-.12a1.2,1.2,0,0,0-1.32-1.34,2.89,2.89,0,0,0-1.51.43l-.24-.7a3.61,3.61,0,0,1,1.91-.52c1.77,0,2.21,1.21,2.21,2.37v2.17a8.14,8.14,0,0,0,.1,1.39Zm-.16-3c-1.15,0-2.46.18-2.46,1.31a.93.93,0,0,0,1,1,1.44,1.44,0,0,0,1.4-1,1.11,1.11,0,0,0,.06-.34Z"/><path d="M166.61,325.84c0,.42,0,.89,0,1.59v3.37a3.34,3.34,0,0,1-.83,2.65,3.08,3.08,0,0,1-2.11.7,3.75,3.75,0,0,1-1.93-.48l.26-.8a3.28,3.28,0,0,0,1.7.46c1.08,0,1.87-.56,1.87-2v-.65h0a2.07,2.07,0,0,1-1.85,1,2.59,2.59,0,0,1-2.47-2.83,2.79,2.79,0,0,1,2.61-3.08,1.93,1.93,0,0,1,1.81,1h0l0-.87Zm-1.09,2.29a1.54,1.54,0,0,0-1.54-1.6c-1,0-1.73.85-1.73,2.2,0,1.14.58,2.09,1.72,2.09a1.54,1.54,0,0,0,1.46-1.08,1.83,1.83,0,0,0,.08-.56Z"/><path d="M168.91,328.93a1.86,1.86,0,0,0,2,2,3.81,3.81,0,0,0,1.61-.3l.18.75a4.7,4.7,0,0,1-1.93.36,2.7,2.7,0,0,1-2.85-2.93c0-1.75,1-3.13,2.72-3.13a2.46,2.46,0,0,1,2.4,2.73,4,4,0,0,1,0,.49Zm3.09-.75a1.5,1.5,0,0,0-1.46-1.71,1.75,1.75,0,0,0-1.62,1.71Z"/><path d="M176.62,323.32a7.91,7.91,0,0,0-1.51,4.91,8.08,8.08,0,0,0,1.51,4.87h-.83a7.75,7.75,0,0,1-1.57-4.87,7.91,7.91,0,0,1,1.57-4.91Z"/><path d="M177.1,333.09a8.12,8.12,0,0,0,1.51-4.91,8,8,0,0,0-1.51-4.87h.82a7.64,7.64,0,0,1,1.57,4.88,7.79,7.79,0,0,1-1.57,4.89Z"/><path d="M183.15,327.89c.85,0,1-.47,1-.89a7.15,7.15,0,0,0-.1-1,7,7,0,0,1-.1-1c0-1.1.72-1.57,1.74-1.57h.25v.66h-.21c-.71,0-.95.38-.95,1a5.27,5.27,0,0,0,.08.85,5.61,5.61,0,0,1,.08.91,1.15,1.15,0,0,1-.86,1.3v0a1.15,1.15,0,0,1,.86,1.31,5.47,5.47,0,0,1-.08.91,5.41,5.41,0,0,0-.08.86c0,.67.28,1,.95,1h.21V333h-.25c-1,0-1.74-.43-1.74-1.64a6.83,6.83,0,0,1,.1-1,6.68,6.68,0,0,0,.1-1c0-.37-.12-.89-1-.89Z"/><path d="M101.35,345a2.78,2.78,0,0,0,1.39.42c.77,0,1.13-.38,1.13-.86s-.3-.78-1.08-1.07c-1-.37-1.54-.95-1.54-1.64a1.79,1.79,0,0,1,2-1.7,2.9,2.9,0,0,1,1.43.36l-.26.77a2.26,2.26,0,0,0-1.19-.34c-.62,0-1,.36-1,.79s.35.7,1.1,1c1,.38,1.52.89,1.52,1.75,0,1-.79,1.74-2.17,1.74a3.32,3.32,0,0,1-1.63-.4Z"/><path d="M107.52,338.57v1.67H109v.8h-1.51v3.13c0,.72.2,1.13.79,1.13a2.33,2.33,0,0,0,.61-.07l0,.79a2.58,2.58,0,0,1-.94.14,1.46,1.46,0,0,1-1.14-.44,2.15,2.15,0,0,1-.41-1.51V341h-.9v-.8h.9v-1.39Z"/><path d="M115.4,343.09a2.84,2.84,0,0,1-2.89,3.08,2.76,2.76,0,0,1-2.78-3,2.83,2.83,0,0,1,2.88-3.08A2.75,2.75,0,0,1,115.4,343.09Zm-4.61.06c0,1.27.73,2.23,1.76,2.23s1.76-.95,1.76-2.25c0-1-.49-2.23-1.74-2.23S110.79,342,110.79,343.15Z"/><path d="M116.73,342c0-.68,0-1.27,0-1.81h.92l0,1.14h0a1.74,1.74,0,0,1,1.61-1.27,1.12,1.12,0,0,1,.3,0v1a1.56,1.56,0,0,0-.36,0,1.48,1.48,0,0,0-1.42,1.36,3,3,0,0,0,0,.49V346h-1Z"/><path d="M121.12,343.33a1.86,1.86,0,0,0,2,2,3.81,3.81,0,0,0,1.61-.3l.18.75a4.7,4.7,0,0,1-1.93.36,2.7,2.7,0,0,1-2.85-2.93c0-1.75,1-3.13,2.72-3.13a2.46,2.46,0,0,1,2.4,2.73,4,4,0,0,1,0,.49Zm3.09-.75a1.5,1.5,0,0,0-1.46-1.72,1.75,1.75,0,0,0-1.62,1.72Z"/><path d="M126.15,345.42a.71.71,0,0,1,.72-.75.76.76,0,1,1-.72.75Z"/><path d="M128.89,341.81c0-.6,0-1.09,0-1.57h.94l.06,1h0a2.13,2.13,0,0,1,1.92-1.09c.8,0,2.05.48,2.05,2.47V346h-1.06V342.7c0-.94-.35-1.72-1.34-1.72a1.5,1.5,0,0,0-1.42,1.08,1.52,1.52,0,0,0-.07.49V346h-1.06Z"/><path d="M136.14,343.33a1.86,1.86,0,0,0,2,2,3.81,3.81,0,0,0,1.61-.3l.18.75a4.7,4.7,0,0,1-1.93.36,2.7,2.7,0,0,1-2.85-2.93c0-1.75,1-3.13,2.72-3.13a2.46,2.46,0,0,1,2.4,2.73,4,4,0,0,1,0,.49Zm3.09-.75a1.5,1.5,0,0,0-1.46-1.72,1.75,1.75,0,0,0-1.62,1.72Z"/><path d="M142,340.24l.77,3c.17.65.32,1.25.43,1.85h0c.13-.59.32-1.21.52-1.83l.95-3h.89l.9,2.9c.22.7.38,1.31.52,1.89h0a17.55,17.55,0,0,1,.44-1.88l.83-2.91h1l-1.87,5.8h-1l-.89-2.77a19.45,19.45,0,0,1-.52-1.91h0a17.08,17.08,0,0,1-.53,1.92l-.94,2.76h-1l-1.75-5.8Z"/><path d="M157.24,342.49c-.06-1.13-.13-2.48-.12-3.49h0c-.28.95-.61,2-1,3.07L154.64,346h-.79l-1.31-3.85c-.38-1.14-.71-2.18-.94-3.14h0c0,1-.08,2.36-.16,3.57l-.22,3.47h-1l.56-8.08h1.33l1.38,3.91c.34,1,.61,1.88.82,2.72h0c.2-.82.49-1.7.85-2.72l1.44-3.91H158l.5,8.08h-1Z"/><path d="M160.7,343.33a1.86,1.86,0,0,0,2,2,3.81,3.81,0,0,0,1.61-.3l.18.75a4.7,4.7,0,0,1-1.93.36,2.7,2.7,0,0,1-2.85-2.93c0-1.75,1-3.13,2.72-3.13a2.46,2.46,0,0,1,2.4,2.73,4,4,0,0,1,0,.49Zm3.09-.75a1.5,1.5,0,0,0-1.46-1.72,1.75,1.75,0,0,0-1.62,1.72Z"/><path d="M166,345a2.78,2.78,0,0,0,1.39.42c.77,0,1.13-.38,1.13-.86s-.3-.78-1.08-1.07c-1-.37-1.54-.95-1.54-1.64a1.79,1.79,0,0,1,2-1.7,2.9,2.9,0,0,1,1.43.36l-.26.77a2.26,2.26,0,0,0-1.19-.34c-.62,0-1,.36-1,.79s.35.7,1.1,1c1,.38,1.52.89,1.52,1.75,0,1-.79,1.74-2.17,1.74a3.32,3.32,0,0,1-1.63-.4Z"/><path d="M170.73,345a2.78,2.78,0,0,0,1.39.42c.77,0,1.13-.38,1.13-.86s-.3-.78-1.08-1.07c-1-.37-1.54-.95-1.54-1.64a1.79,1.79,0,0,1,2-1.7,2.9,2.9,0,0,1,1.43.36l-.26.77a2.26,2.26,0,0,0-1.19-.34c-.62,0-1,.36-1,.79s.35.7,1.1,1c1,.38,1.52.89,1.52,1.75,0,1-.79,1.74-2.17,1.74a3.32,3.32,0,0,1-1.63-.4Z"/><path d="M178.84,346l-.08-.73h0a2.16,2.16,0,0,1-1.77.86,1.65,1.65,0,0,1-1.77-1.67c0-1.4,1.25-2.17,3.49-2.16v-.12a1.2,1.2,0,0,0-1.32-1.34,2.89,2.89,0,0,0-1.51.43l-.24-.7a3.61,3.61,0,0,1,1.91-.52c1.77,0,2.21,1.21,2.21,2.37v2.17a8.14,8.14,0,0,0,.1,1.39Zm-.16-3c-1.15,0-2.46.18-2.46,1.31a.93.93,0,0,0,1,1,1.44,1.44,0,0,0,1.4-1,1.11,1.11,0,0,0,.06-.34Z"/><path d="M186.41,340.24c0,.42,0,.89,0,1.59v3.37a3.33,3.33,0,0,1-.83,2.65,3.07,3.07,0,0,1-2.11.7,3.74,3.74,0,0,1-1.93-.48l.26-.8a3.28,3.28,0,0,0,1.7.46c1.08,0,1.87-.56,1.87-2V345h0a2.07,2.07,0,0,1-1.85,1,2.59,2.59,0,0,1-2.47-2.83,2.79,2.79,0,0,1,2.61-3.08,1.93,1.93,0,0,1,1.81,1h0l0-.87Zm-1.09,2.29a1.54,1.54,0,0,0-1.54-1.6c-1,0-1.73.85-1.73,2.2,0,1.14.58,2.09,1.72,2.09a1.54,1.54,0,0,0,1.46-1.08,1.85,1.85,0,0,0,.08-.56Z"/><path d="M188.71,343.33a1.86,1.86,0,0,0,2,2,3.82,3.82,0,0,0,1.61-.3l.18.75a4.69,4.69,0,0,1-1.93.36,2.7,2.7,0,0,1-2.85-2.93c0-1.75,1-3.13,2.72-3.13a2.46,2.46,0,0,1,2.4,2.73,4.05,4.05,0,0,1,0,.49Zm3.09-.75a1.5,1.5,0,0,0-1.46-1.72,1.75,1.75,0,0,0-1.62,1.72Z"/><path d="M196.42,337.72a7.91,7.91,0,0,0-1.51,4.91,8.08,8.08,0,0,0,1.51,4.87h-.83a7.75,7.75,0,0,1-1.57-4.87,7.91,7.91,0,0,1,1.57-4.91Z"/><path d="M198.81,338.57v1.67h1.51v.8h-1.51v3.13c0,.72.2,1.13.79,1.13a2.34,2.34,0,0,0,.61-.07l0,.79a2.58,2.58,0,0,1-.94.14,1.46,1.46,0,0,1-1.14-.44,2.15,2.15,0,0,1-.41-1.51V341h-.9v-.8h.9v-1.39Z"/><path d="M201.51,337.53h1.05v3.62h0a2,2,0,0,1,.75-.74,2.18,2.18,0,0,1,1.08-.3c.78,0,2,.48,2,2.48V346H205.4v-3.33c0-.94-.35-1.73-1.34-1.73a1.52,1.52,0,0,0-1.42,1.06,1.27,1.27,0,0,0-.07.5V346h-1.05Z"/><path d="M209.35,338.61a.65.65,0,0,1-1.31,0,.64.64,0,0,1,.66-.66A.63.63,0,0,1,209.35,338.61ZM208.17,346v-5.8h1.06V346Z"/><path d="M210.84,345a2.78,2.78,0,0,0,1.39.42c.77,0,1.13-.38,1.13-.86s-.3-.78-1.08-1.07c-1-.37-1.54-.95-1.54-1.64a1.79,1.79,0,0,1,2-1.7,2.91,2.91,0,0,1,1.43.36l-.26.77a2.26,2.26,0,0,0-1.19-.34c-.62,0-1,.36-1,.79s.35.7,1.1,1c1,.38,1.52.89,1.52,1.75,0,1-.79,1.74-2.17,1.74a3.31,3.31,0,0,1-1.63-.4Z"/><path d="M215.35,345.42a.71.71,0,0,1,.72-.75.76.76,0,1,1-.72.75Z"/><path d="M218.08,341.81c0-.6,0-1.09,0-1.57H219l0,.94h0a2,2,0,0,1,1.82-1.07,1.72,1.72,0,0,1,1.64,1.16h0a2.4,2.4,0,0,1,.65-.76,2,2,0,0,1,1.28-.41c.77,0,1.91.5,1.91,2.52V346h-1v-3.29c0-1.12-.41-1.79-1.26-1.79a1.37,1.37,0,0,0-1.25,1,1.77,1.77,0,0,0-.08.53V346h-1v-3.48c0-.92-.41-1.59-1.21-1.59A1.44,1.44,0,0,0,219.2,342a1.46,1.46,0,0,0-.08.52V346h-1Z"/><path d="M227.95,345a2.77,2.77,0,0,0,1.39.42c.77,0,1.13-.38,1.13-.86s-.3-.78-1.08-1.07c-1-.37-1.54-.95-1.54-1.64a1.79,1.79,0,0,1,2-1.7,2.91,2.91,0,0,1,1.43.36l-.26.77a2.27,2.27,0,0,0-1.19-.34c-.62,0-1,.36-1,.79s.35.7,1.1,1c1,.38,1.52.89,1.52,1.75,0,1-.79,1.74-2.17,1.74a3.31,3.31,0,0,1-1.63-.4Z"/><path d="M237.84,340.24c0,.42,0,.89,0,1.59v3.37a3.34,3.34,0,0,1-.83,2.65,3.08,3.08,0,0,1-2.11.7,3.75,3.75,0,0,1-1.93-.48l.26-.8a3.28,3.28,0,0,0,1.7.46c1.08,0,1.87-.56,1.87-2V345h0a2.07,2.07,0,0,1-1.85,1,2.59,2.59,0,0,1-2.47-2.83,2.79,2.79,0,0,1,2.61-3.08,1.93,1.93,0,0,1,1.81,1h0l0-.87Zm-1.09,2.29a1.54,1.54,0,0,0-.06-.48,1.52,1.52,0,0,0-1.48-1.12c-1,0-1.73.85-1.73,2.2,0,1.14.58,2.09,1.71,2.09a1.54,1.54,0,0,0,1.46-1.08,1.85,1.85,0,0,0,.08-.56Z"/><path d="M238.92,347.49a8.12,8.12,0,0,0,1.51-4.91,8,8,0,0,0-1.51-4.87h.82a7.64,7.64,0,0,1,1.57,4.88,7.79,7.79,0,0,1-1.57,4.89Z"/><path d="M93.51,357.3c-.85,0-1,.52-1,.89a6.68,6.68,0,0,0,.1,1,6.84,6.84,0,0,1,.1,1A1.52,1.52,0,0,1,91,361.79h-.25v-.66h.2c.67,0,1-.37,1-1a7.32,7.32,0,0,0-.08-.86,5.39,5.39,0,0,1-.1-.91,1.17,1.17,0,0,1,.86-1.31v0a1.17,1.17,0,0,1-.86-1.3,5.55,5.55,0,0,1,.1-.91,7.14,7.14,0,0,0,.08-.85c0-.65-.25-1-.95-1h-.22v-.66H91c1,0,1.75.47,1.75,1.57a7,7,0,0,1-.1,1,7.15,7.15,0,0,0-.1,1c0,.42.12.89,1,.89Z"/><path d="M36.43,120.58l-.49,149.86s.5,9.5,9.5,9.5h27" style="fill:none;stroke:#000;stroke-miterlimit:10"/><rect x="33.13" y="117.44" width="6.6" height="6.6" transform="translate(-84.43 156.78) rotate(-89.81)"/><line x1="36.43" y1="174.58" x2="35.94" y2="270.44" style="fill:none;stroke:#000;stroke-miterlimit:10"/><rect x="33.12" y="171.44" width="6.6" height="6.6" transform="translate(-138.5 210.29) rotate(-89.71)"/><line x1="225.94" y1="162.44" x2="225.94" y2="159.44" style="fill:none;stroke:#000;stroke-miterlimit:10"/><line x1="225.94" y1="154.44" x2="225.94" y2="147.44" style="fill:none;stroke:#000;stroke-miterlimit:10;stroke-dasharray:5,5"/><line x1="225.94" y1="145.44" x2="225.94" y2="142.44" style="fill:none;stroke:#000;stroke-miterlimit:10"/><polygon points="225.94 135.44 230.01 145.39 225.94 143.03 221.88 145.39 225.94 135.44"/><path d="M56.4,118.36v8.08h-1v-8.08Z"/><path d="M58.31,122.21c0-.6,0-1.09,0-1.57h.94l.06,1h0a2.13,2.13,0,0,1,1.92-1.09c.8,0,2.05.48,2.05,2.47v3.47H62.19V123.1c0-.94-.35-1.71-1.34-1.71a1.5,1.5,0,0,0-1.42,1.08,1.52,1.52,0,0,0-.07.49v3.49H58.31Z"/><path d="M64.82,125.36a2.77,2.77,0,0,0,1.39.42c.77,0,1.13-.38,1.13-.86s-.3-.78-1.08-1.07c-1-.37-1.54-.95-1.54-1.64a1.79,1.79,0,0,1,2-1.7,2.9,2.9,0,0,1,1.43.36l-.26.77a2.26,2.26,0,0,0-1.19-.34c-.62,0-1,.36-1,.79s.35.7,1.1,1c1,.38,1.52.89,1.52,1.75,0,1-.79,1.74-2.17,1.74a3.31,3.31,0,0,1-1.63-.4Z"/><path d="M71,119v1.67H72.5v.8H71v3.13c0,.72.2,1.13.79,1.13a2.37,2.37,0,0,0,.61-.07l0,.79a2.58,2.58,0,0,1-.94.14,1.46,1.46,0,0,1-1.14-.44,2.15,2.15,0,0,1-.41-1.51v-3.17h-.9v-.8H70v-1.39Z"/><path d="M76.9,126.44l-.08-.73h0a2.16,2.16,0,0,1-1.77.86,1.65,1.65,0,0,1-1.77-1.67c0-1.4,1.25-2.17,3.49-2.16v-.12a1.2,1.2,0,0,0-1.32-1.34,2.89,2.89,0,0,0-1.51.43l-.24-.7a3.6,3.6,0,0,1,1.91-.52c1.77,0,2.21,1.21,2.21,2.37v2.17a8.14,8.14,0,0,0,.1,1.39Zm-.16-3c-1.15,0-2.46.18-2.46,1.31a.93.93,0,0,0,1,1,1.44,1.44,0,0,0,1.4-1,1.11,1.11,0,0,0,.06-.34Z"/><path d="M79.47,122.21c0-.6,0-1.09,0-1.57h.94l.06,1h0a2.13,2.13,0,0,1,1.92-1.09c.8,0,2.05.48,2.05,2.47v3.47H83.36V123.1c0-.94-.35-1.71-1.34-1.71a1.5,1.5,0,0,0-1.42,1.08,1.52,1.52,0,0,0-.07.49v3.49H79.47Z"/><path d="M90.27,126.23a3.88,3.88,0,0,1-1.67.34,2.76,2.76,0,0,1-2.89-3,3,3,0,0,1,3.12-3.08,3.52,3.52,0,0,1,1.46.3l-.24.82a2.45,2.45,0,0,0-1.22-.28,2.19,2.19,0,0,0,0,4.37,3,3,0,0,0,1.3-.29Z"/><path d="M92,123.73a1.86,1.86,0,0,0,2,2,3.81,3.81,0,0,0,1.61-.3l.18.76a4.7,4.7,0,0,1-1.93.36A2.7,2.7,0,0,1,91,123.64c0-1.75,1-3.13,2.72-3.13a2.46,2.46,0,0,1,2.4,2.73,4,4,0,0,1,0,.49Zm3.09-.76a1.5,1.5,0,0,0-1.46-1.71A1.75,1.75,0,0,0,92,123Z"/><path d="M101.34,123.9l-.84,2.54H99.42l2.75-8.08h1.26l2.76,8.08h-1.12l-.86-2.54Zm2.65-.82-.79-2.33c-.18-.53-.3-1-.42-1.48h0c-.12.48-.25,1-.41,1.46l-.79,2.34Z"/><path d="M56.4,172.36v8.08h-1v-8.08Z"/><path d="M58.31,176.21c0-.6,0-1.09,0-1.57h.94l.06,1h0a2.13,2.13,0,0,1,1.92-1.09c.8,0,2.05.48,2.05,2.47v3.47H62.19V177.1c0-.94-.35-1.71-1.34-1.71a1.5,1.5,0,0,0-1.42,1.08,1.52,1.52,0,0,0-.07.49v3.49H58.31Z"/><path d="M64.82,179.36a2.77,2.77,0,0,0,1.39.42c.77,0,1.13-.38,1.13-.86s-.3-.78-1.08-1.07c-1-.37-1.54-.95-1.54-1.64a1.79,1.79,0,0,1,2-1.7,2.9,2.9,0,0,1,1.43.36l-.26.77a2.26,2.26,0,0,0-1.19-.34c-.62,0-1,.36-1,.79s.35.7,1.1,1c1,.38,1.52.89,1.52,1.75,0,1-.79,1.74-2.17,1.74a3.31,3.31,0,0,1-1.63-.4Z"/><path d="M71,173v1.67H72.5v.8H71v3.13c0,.72.2,1.13.79,1.13a2.37,2.37,0,0,0,.61-.07l0,.79a2.58,2.58,0,0,1-.94.14,1.46,1.46,0,0,1-1.14-.44,2.15,2.15,0,0,1-.41-1.51v-3.17h-.9v-.8H70v-1.39Z"/><path d="M76.9,180.44l-.08-.73h0a2.16,2.16,0,0,1-1.77.86,1.65,1.65,0,0,1-1.77-1.67c0-1.4,1.25-2.17,3.49-2.16v-.12a1.2,1.2,0,0,0-1.32-1.34,2.89,2.89,0,0,0-1.51.43l-.24-.7a3.6,3.6,0,0,1,1.91-.52c1.77,0,2.21,1.21,2.21,2.37v2.17a8.14,8.14,0,0,0,.1,1.39Zm-.16-3c-1.15,0-2.46.18-2.46,1.31a.93.93,0,0,0,1,1,1.44,1.44,0,0,0,1.4-1,1.11,1.11,0,0,0,.06-.34Z"/><path d="M79.47,176.21c0-.6,0-1.09,0-1.57h.94l.06,1h0a2.13,2.13,0,0,1,1.92-1.09c.8,0,2.05.48,2.05,2.47v3.47H83.36V177.1c0-.94-.35-1.71-1.34-1.71a1.5,1.5,0,0,0-1.42,1.08,1.52,1.52,0,0,0-.07.49v3.49H79.47Z"/><path d="M90.27,180.23a3.88,3.88,0,0,1-1.67.34,2.76,2.76,0,0,1-2.89-3,3,3,0,0,1,3.12-3.08,3.52,3.52,0,0,1,1.46.3l-.24.82a2.45,2.45,0,0,0-1.22-.28,2.19,2.19,0,0,0,0,4.37,3,3,0,0,0,1.3-.29Z"/><path d="M92,177.73a1.86,1.86,0,0,0,2,2,3.81,3.81,0,0,0,1.61-.3l.18.76a4.7,4.7,0,0,1-1.93.36A2.7,2.7,0,0,1,91,177.64c0-1.75,1-3.13,2.72-3.13a2.46,2.46,0,0,1,2.4,2.73,4,4,0,0,1,0,.49Zm3.09-.76a1.5,1.5,0,0,0-1.46-1.71A1.75,1.75,0,0,0,92,177Z"/><path d="M100,172.47a10.09,10.09,0,0,1,1.91-.17,3.34,3.34,0,0,1,2.22.59,1.69,1.69,0,0,1,.67,1.43,1.92,1.92,0,0,1-1.37,1.77v0a2.08,2.08,0,0,1,1.67,2,2.18,2.18,0,0,1-.68,1.62,4.06,4.06,0,0,1-2.79.76,12.23,12.23,0,0,1-1.62-.1Zm1,3.31H102c1.1,0,1.75-.58,1.75-1.35,0-.95-.72-1.32-1.77-1.32a4.47,4.47,0,0,0-.92.07Zm0,3.87a5.55,5.55,0,0,0,.88,0c1.08,0,2.07-.4,2.07-1.57s-.95-1.56-2.09-1.56h-.86Z"/><line x1="207.44" y1="117.44" x2="117.44" y2="117.94"/><line x1="207.44" y1="117.44" x2="124.5" y2="117.9" style="fill:none;stroke:#000;stroke-miterlimit:10;stroke-dasharray:6,6"/><polygon points="117.44 117.94 127.37 113.82 125.03 117.9 127.41 121.95 117.44 117.94"/><path d="M324.41,207.44l.51,144s-.49,8.5-9.49,8.5h-20" style="fill:none;stroke:#000;stroke-miterlimit:10"/><polygon points="288.44 359.94 298.39 355.88 296.03 359.94 298.39 364.01 288.44 359.94"/><line x1="121.44" y1="179.94" x2="200.44" y2="179.94" style="fill:none;stroke:#000;stroke-miterlimit:10"/><circle cx="121.2" cy="179.94" r="3.76"/><polygon points="207.44 179.94 197.49 184.01 199.85 179.94 197.49 175.88 207.44 179.94"/></svg>