<svg id="Layer_1" data-name="Layer 1" xmlns="http://www.w3.org/2000/svg" viewBox="0 0 504.64 253.35"><title>vuex-01</title><rect x="0.35" y="0.35" width="216" height="234" rx="12" ry="12" style="fill:#e6e6e6;stroke:gray;stroke-miterlimit:10;stroke-width:0.6982120021884476px"/><path d="M83.4,19.91a.65.65,0,0,1-1.31,0,.64.64,0,0,1,.66-.66A.63.63,0,0,1,83.4,19.91Zm-1.17,7.44v-5.8h1.05v5.8Z"/><path d="M85,23.12c0-.6,0-1.09,0-1.57h.94l.06,1h0a2.14,2.14,0,0,1,1.92-1.09c.8,0,2.05.48,2.05,2.47v3.47H88.92V24c0-.94-.35-1.71-1.34-1.71a1.5,1.5,0,0,0-1.42,1.08,1.52,1.52,0,0,0-.07.49v3.49H85Z"/><path d="M96.71,18.83v7c0,.52,0,1.1,0,1.5h-.95l0-1h0a2.15,2.15,0,0,1-2,1.14c-1.4,0-2.48-1.19-2.48-3,0-1.93,1.19-3.12,2.6-3.12a1.94,1.94,0,0,1,1.75.89h0V18.83Zm-1.06,5.07a1.85,1.85,0,0,0,0-.44,1.55,1.55,0,0,0-1.52-1.22c-1.09,0-1.74,1-1.74,2.24s.58,2.15,1.71,2.15a1.59,1.59,0,0,0,1.55-1.26,1.83,1.83,0,0,0,0-.46Z"/><path d="M99,24.64a1.86,1.86,0,0,0,2,2,3.82,3.82,0,0,0,1.61-.3l.18.76a4.7,4.7,0,0,1-1.93.36A2.7,2.7,0,0,1,98,24.54c0-1.75,1-3.13,2.72-3.13a2.46,2.46,0,0,1,2.4,2.73,4,4,0,0,1,0,.49Zm3.09-.76a1.5,1.5,0,0,0-1.46-1.71,1.75,1.75,0,0,0-1.62,1.71Z"/><path d="M104.93,21.54l.83,1.25c.22.32.4.62.59.95h0c.19-.35.38-.65.58-1l.82-1.24h1.14l-2,2.81,2,3h-1.2L106.92,26c-.23-.34-.42-.66-.62-1h0c-.19.35-.4.66-.61,1l-.84,1.31h-1.16l2.06-3-2-2.84Z"/><path d="M109.74,26.73a.71.71,0,0,1,.72-.76.76.76,0,1,1-.72.76Z"/><path d="M112.48,18.83h1.05v3.62h0a2,2,0,0,1,.76-.74,2.17,2.17,0,0,1,1.08-.3c.78,0,2,.48,2,2.48v3.45h-1.05V24c0-.94-.35-1.73-1.34-1.73a1.52,1.52,0,0,0-1.42,1.06,1.29,1.29,0,0,0-.07.5v3.5h-1.05Z"/><path d="M120.36,19.88v1.67h1.51v.8h-1.51v3.13c0,.72.2,1.13.79,1.13a2.36,2.36,0,0,0,.61-.07l0,.79a2.58,2.58,0,0,1-.94.14,1.46,1.46,0,0,1-1.14-.44,2.15,2.15,0,0,1-.41-1.51V22.35h-.9v-.8h.9V20.15Z"/><path d="M123.06,23.12c0-.6,0-1.09,0-1.57h.92l0,.94h0a2,2,0,0,1,1.82-1.07,1.72,1.72,0,0,1,1.64,1.16h0a2.38,2.38,0,0,1,.65-.76,2,2,0,0,1,1.28-.41c.77,0,1.91.5,1.91,2.52v3.42h-1V24.06c0-1.12-.41-1.79-1.26-1.79a1.37,1.37,0,0,0-1.25,1,1.74,1.74,0,0,0-.08.53v3.59h-1V23.87c0-.92-.41-1.6-1.21-1.6a1.57,1.57,0,0,0-1.39,1.57v3.5h-1Z"/><path d="M133.07,18.83h1.05v8.52h-1.05Z"/><rect x="351.35" y="0.35" width="153" height="234" rx="12" ry="12" style="fill:#e6e6e6;stroke:gray;stroke-miterlimit:10;stroke-width:0.5876329636771586px"/><path d="M415.63,21.54l1.14,3.26a15.13,15.13,0,0,1,.47,1.49h0c.13-.48.3-1,.49-1.49l1.13-3.26H420l-2.28,5.8h-1l-2.21-5.8Z"/><path d="M425.85,25.77c0,.6,0,1.13,0,1.58H425l-.06-.95h0A2.18,2.18,0,0,1,423,27.48c-.91,0-2-.5-2-2.54V21.54H422v3.21c0,1.1.34,1.85,1.3,1.85a1.49,1.49,0,0,0,1.49-1.5V21.54h1.05Z"/><path d="M428.2,24.64a1.86,1.86,0,0,0,2,2,3.82,3.82,0,0,0,1.61-.3l.18.76a4.7,4.7,0,0,1-1.93.36,2.7,2.7,0,0,1-2.85-2.93c0-1.75,1-3.13,2.72-3.13a2.46,2.46,0,0,1,2.4,2.73,4,4,0,0,1,0,.49Zm3.09-.76a1.5,1.5,0,0,0-1.46-1.71,1.75,1.75,0,0,0-1.62,1.71Z"/><path d="M434.08,21.54l.83,1.25c.22.32.4.62.59.95h0c.19-.35.38-.65.58-1l.82-1.24h1.14l-2,2.81,2,3h-1.2L436.07,26c-.23-.34-.42-.66-.62-1h0c-.19.35-.4.66-.61,1L434,27.35H432.8l2.06-3-2-2.84Z"/><rect x="18.35" y="45.35" width="180" height="171" rx="12" ry="12" style="fill:#fbb03b;stroke:#000;stroke-miterlimit:10;stroke-width:1.146681687624584px"/><path d="M38.57,69.81l-.84,2.54H36.65l2.75-8.08h1.26l2.76,8.08H42.3l-.86-2.54ZM41.22,69l-.79-2.33c-.18-.53-.3-1-.42-1.48h0c-.12.48-.25,1-.41,1.46L38.78,69Z"/><path d="M44.53,68.44c0-.74,0-1.34,0-1.9h.95l0,1h0a2.28,2.28,0,0,1,2.06-1.13c1.4,0,2.46,1.19,2.46,3,0,2.09-1.27,3.12-2.64,3.12a2,2,0,0,1-1.79-.91h0v3.15h-1Zm1,1.55a2.43,2.43,0,0,0,0,.43,1.63,1.63,0,0,0,1.58,1.24c1.12,0,1.76-.91,1.76-2.24,0-1.16-.61-2.16-1.73-2.16a1.68,1.68,0,0,0-1.59,1.31,1.71,1.71,0,0,0-.07.43Z"/><path d="M51.36,68.44c0-.74,0-1.34,0-1.9h.95l0,1h0a2.28,2.28,0,0,1,2.06-1.13c1.4,0,2.46,1.19,2.46,3,0,2.09-1.27,3.12-2.64,3.12a2,2,0,0,1-1.79-.91h0v3.15h-1Zm1,1.55a2.43,2.43,0,0,0,0,.43A1.63,1.63,0,0,0,54,71.65c1.12,0,1.76-.91,1.76-2.24,0-1.16-.61-2.16-1.73-2.16a1.68,1.68,0,0,0-1.59,1.31,1.71,1.71,0,0,0-.07.43Z"/><path d="M57.65,71.73a.71.71,0,0,1,.72-.76.76.76,0,1,1-.72.76Z"/><path d="M60.79,66.54l1.14,3.26a15.13,15.13,0,0,1,.47,1.49h0c.13-.48.3-1,.49-1.49l1.13-3.26h1.1l-2.28,5.8h-1l-2.21-5.8Z"/><path d="M71,70.77c0,.6,0,1.13,0,1.58h-.94l-.06-.95h0a2.18,2.18,0,0,1-1.92,1.08c-.91,0-2-.5-2-2.54V66.54h1.05v3.21c0,1.1.34,1.85,1.3,1.85A1.49,1.49,0,0,0,70,70.11V66.54H71Z"/><path d="M73.36,69.64a1.86,1.86,0,0,0,2,2,3.82,3.82,0,0,0,1.61-.3l.18.76a4.7,4.7,0,0,1-1.93.36,2.7,2.7,0,0,1-2.85-2.93c0-1.75,1-3.13,2.72-3.13a2.46,2.46,0,0,1,2.4,2.73,4,4,0,0,1,0,.49Zm3.09-.76A1.5,1.5,0,0,0,75,67.17a1.75,1.75,0,0,0-1.62,1.71Z"/><rect x="369.35" y="54.35" width="117" height="27" rx="12" ry="12" style="fill:#fcee21;stroke:#000;stroke-miterlimit:10;stroke-width:0.866025403784439px"/><path d="M380.57,69.81l-.84,2.54h-1.08l2.75-8.08h1.26l2.76,8.08H384.3l-.86-2.54Zm2.65-.82-.79-2.33c-.18-.53-.3-1-.42-1.48h0c-.12.48-.25,1-.41,1.46L380.78,69Z"/><path d="M390.56,72.13a3.88,3.88,0,0,1-1.67.34,2.76,2.76,0,0,1-2.89-3,3,3,0,0,1,3.12-3.08,3.52,3.52,0,0,1,1.46.3l-.24.82a2.46,2.46,0,0,0-1.22-.28,2.19,2.19,0,0,0,0,4.37,3,3,0,0,0,1.29-.29Z"/><path d="M393.23,64.88v1.67h1.51v.8h-1.51v3.13c0,.72.2,1.13.79,1.13a2.37,2.37,0,0,0,.61-.07l0,.79a2.58,2.58,0,0,1-.94.14A1.46,1.46,0,0,1,392.6,72a2.15,2.15,0,0,1-.41-1.51V67.35h-.9v-.8h.9V65.15Z"/><path d="M397.1,64.91a.65.65,0,0,1-1.31,0,.64.64,0,0,1,.66-.66A.63.63,0,0,1,397.1,64.91Zm-1.17,7.44v-5.8H397v5.8Z"/><path d="M404,69.4a2.84,2.84,0,0,1-2.89,3.08,2.76,2.76,0,0,1-2.78-3,2.83,2.83,0,0,1,2.88-3.08A2.75,2.75,0,0,1,404,69.4Zm-4.61.06c0,1.27.73,2.23,1.76,2.23s1.76-.95,1.76-2.25c0-1-.49-2.23-1.74-2.23S399.38,68.36,399.38,69.46Z"/><path d="M405.32,68.12c0-.6,0-1.09,0-1.57h.94l.06,1h0a2.13,2.13,0,0,1,1.92-1.09c.8,0,2.05.48,2.05,2.47v3.47h-1.05V69c0-.94-.35-1.71-1.34-1.71a1.5,1.5,0,0,0-1.42,1.08,1.52,1.52,0,0,0-.07.49v3.49h-1.06Z"/><path d="M411.84,71.27a2.77,2.77,0,0,0,1.39.42c.77,0,1.13-.38,1.13-.86s-.3-.78-1.08-1.07c-1-.37-1.54-.95-1.54-1.64a1.79,1.79,0,0,1,2-1.7,2.9,2.9,0,0,1,1.43.36l-.26.77a2.26,2.26,0,0,0-1.19-.34c-.62,0-1,.36-1,.79s.35.7,1.1,1c1,.38,1.52.89,1.52,1.75,0,1-.79,1.74-2.17,1.74a3.31,3.31,0,0,1-1.63-.4Z"/><rect x="369.35" y="117.35" width="117" height="27" rx="12" ry="12" style="fill:#fcee21;stroke:#000;stroke-miterlimit:10;stroke-width:0.866025403784439px"/><path d="M386.07,131.8c-.06-1.13-.13-2.48-.12-3.49h0c-.28.95-.61,2-1,3.07l-1.43,3.92h-.79l-1.31-3.85c-.38-1.14-.71-2.18-.94-3.14h0c0,1-.08,2.36-.16,3.57l-.21,3.47h-1l.56-8.08h1.33l1.38,3.91c.34,1,.61,1.88.82,2.72h0c.2-.82.49-1.7.85-2.72l1.44-3.91h1.33l.5,8.08h-1Z"/><path d="M393.77,133.77c0,.6,0,1.13,0,1.58h-.94l-.06-.95h0a2.19,2.19,0,0,1-1.92,1.08c-.91,0-2-.5-2-2.54v-3.39h1.05v3.21c0,1.1.34,1.85,1.3,1.85a1.53,1.53,0,0,0,1.39-1,1.55,1.55,0,0,0,.1-.54v-3.56h1.05Z"/><path d="M396.79,127.88v1.67h1.51v.8h-1.51v3.13c0,.72.2,1.13.79,1.13a2.35,2.35,0,0,0,.61-.07l0,.79a2.59,2.59,0,0,1-.94.14,1.46,1.46,0,0,1-1.14-.44,2.15,2.15,0,0,1-.41-1.51v-3.17h-.9v-.8h.9v-1.39Z"/><path d="M402.71,135.35l-.08-.73h0a2.16,2.16,0,0,1-1.77.86,1.65,1.65,0,0,1-1.78-1.67c0-1.4,1.25-2.17,3.49-2.16v-.12a1.2,1.2,0,0,0-1.32-1.34,2.89,2.89,0,0,0-1.51.43l-.24-.7a3.6,3.6,0,0,1,1.91-.52c1.78,0,2.21,1.21,2.21,2.37V134a8.15,8.15,0,0,0,.1,1.39Zm-.16-3c-1.15,0-2.46.18-2.46,1.31a.94.94,0,0,0,1,1,1.44,1.44,0,0,0,1.4-1,1.1,1.1,0,0,0,.06-.34Z"/><path d="M406.5,127.88v1.67H408v.8H406.5v3.13c0,.72.2,1.13.79,1.13a2.35,2.35,0,0,0,.61-.07l0,.79a2.58,2.58,0,0,1-.94.14,1.46,1.46,0,0,1-1.14-.44,2.15,2.15,0,0,1-.41-1.51v-3.17h-.9v-.8h.9v-1.39Z"/><path d="M410.38,127.91a.65.65,0,0,1-1.31,0,.64.64,0,0,1,.66-.66A.63.63,0,0,1,410.38,127.91Zm-1.17,7.44v-5.8h1.05v5.8Z"/><path d="M417.26,132.4a2.84,2.84,0,0,1-2.89,3.08,2.76,2.76,0,0,1-2.78-3,2.83,2.83,0,0,1,2.88-3.08A2.75,2.75,0,0,1,417.26,132.4Zm-4.61.06c0,1.27.73,2.23,1.76,2.23s1.76-.95,1.76-2.25c0-1-.49-2.23-1.74-2.23S412.66,131.35,412.66,132.46Z"/><path d="M418.6,131.11c0-.6,0-1.09,0-1.57h.94l.06,1h0a2.13,2.13,0,0,1,1.92-1.09c.8,0,2.05.48,2.05,2.47v3.47h-1.05V132c0-.94-.35-1.71-1.34-1.71a1.5,1.5,0,0,0-1.42,1.08,1.53,1.53,0,0,0-.07.49v3.49H418.6Z"/><path d="M425.11,134.27a2.76,2.76,0,0,0,1.39.42c.77,0,1.13-.38,1.13-.86s-.3-.78-1.08-1.07c-1-.37-1.54-.95-1.54-1.64a1.79,1.79,0,0,1,2-1.7,2.9,2.9,0,0,1,1.43.36l-.26.77a2.26,2.26,0,0,0-1.19-.33c-.62,0-1,.36-1,.79s.35.7,1.1,1c1,.38,1.52.89,1.52,1.75,0,1-.79,1.74-2.17,1.74a3.31,3.31,0,0,1-1.63-.4Z"/><rect x="369.35" y="180.35" width="117" height="27" rx="12" ry="12" style="fill:#fcee21;stroke:#000;stroke-miterlimit:10;stroke-width:0.866025403784439px"/><path d="M379.12,197.08a3.7,3.7,0,0,0,1.87.53c1.07,0,1.69-.56,1.69-1.38s-.43-1.19-1.52-1.61c-1.32-.47-2.13-1.15-2.13-2.29a2.33,2.33,0,0,1,2.61-2.19,3.69,3.69,0,0,1,1.79.39l-.29.85a3.22,3.22,0,0,0-1.54-.38c-1.1,0-1.52.66-1.52,1.21,0,.76.49,1.13,1.61,1.56,1.37.53,2.06,1.19,2.06,2.38s-.92,2.33-2.83,2.33a4.16,4.16,0,0,1-2.06-.52Z"/><path d="M386.38,190.88v1.67h1.51v.8h-1.51v3.13c0,.72.2,1.13.79,1.13a2.35,2.35,0,0,0,.61-.07l0,.79a2.59,2.59,0,0,1-.94.14,1.46,1.46,0,0,1-1.14-.44,2.15,2.15,0,0,1-.41-1.51v-3.17h-.9v-.8h.9v-1.39Z"/><path d="M392.29,198.35l-.08-.73h0a2.16,2.16,0,0,1-1.78.86,1.65,1.65,0,0,1-1.78-1.67c0-1.4,1.25-2.17,3.49-2.16v-.12a1.2,1.2,0,0,0-1.32-1.34,2.89,2.89,0,0,0-1.51.43l-.24-.7a3.61,3.61,0,0,1,1.91-.52c1.77,0,2.21,1.21,2.21,2.37V197a8.14,8.14,0,0,0,.1,1.39Zm-.16-3c-1.15,0-2.46.18-2.46,1.31a.93.93,0,0,0,1,1,1.45,1.45,0,0,0,1.4-1,1.13,1.13,0,0,0,.06-.34Z"/><path d="M396.08,190.88v1.67h1.51v.8h-1.51v3.13c0,.72.2,1.13.79,1.13a2.34,2.34,0,0,0,.61-.07l0,.79a2.58,2.58,0,0,1-.94.14,1.46,1.46,0,0,1-1.14-.44,2.14,2.14,0,0,1-.41-1.51v-3.17h-.9v-.8h.9v-1.39Z"/><path d="M399.3,195.64a1.86,1.86,0,0,0,2,2,3.81,3.81,0,0,0,1.61-.3l.18.76a4.69,4.69,0,0,1-1.93.36,2.7,2.7,0,0,1-2.85-2.93c0-1.75,1-3.13,2.72-3.13a2.46,2.46,0,0,1,2.4,2.73,4.05,4.05,0,0,1,0,.49Zm3.09-.76a1.5,1.5,0,0,0-1.46-1.71,1.75,1.75,0,0,0-1.62,1.71Z"/><rect x="36.35" y="90.35" width="144" height="45" rx="12" ry="12" style="fill:#8cc63f;stroke:#000;stroke-miterlimit:10;stroke-width:0.6454972243679029px"/><path d="M60.91,117.09a5.19,5.19,0,0,1-2.13.38,3.78,3.78,0,0,1-4-4.09A4,4,0,0,1,59,109.13a4.32,4.32,0,0,1,1.92.36l-.25.85A3.79,3.79,0,0,0,59,110a3,3,0,0,0-3.15,3.33A2.94,2.94,0,0,0,59,116.59a4.17,4.17,0,0,0,1.7-.34Z"/><path d="M67.31,114.4a2.84,2.84,0,0,1-2.89,3.08,2.76,2.76,0,0,1-2.78-3,2.83,2.83,0,0,1,2.88-3.08A2.75,2.75,0,0,1,67.31,114.4Zm-4.61.06c0,1.27.73,2.23,1.76,2.23s1.76-.95,1.76-2.25c0-1-.49-2.23-1.74-2.23S62.7,113.35,62.7,114.46Z"/><path d="M68.64,113.12c0-.6,0-1.09,0-1.57h.92l0,.94h0a2,2,0,0,1,1.82-1.07,1.72,1.72,0,0,1,1.64,1.16h0a2.39,2.39,0,0,1,.65-.76,2,2,0,0,1,1.28-.41c.77,0,1.91.5,1.91,2.52v3.42h-1v-3.29c0-1.12-.41-1.79-1.26-1.79a1.37,1.37,0,0,0-1.25,1,1.73,1.73,0,0,0-.08.53v3.59h-1v-3.48c0-.92-.41-1.59-1.21-1.59a1.44,1.44,0,0,0-1.31,1.06,1.46,1.46,0,0,0-.08.52v3.5h-1Z"/><path d="M78.65,113.44c0-.74,0-1.34,0-1.89h.95l0,1h0a2.28,2.28,0,0,1,2.06-1.13c1.4,0,2.46,1.19,2.46,3,0,2.09-1.27,3.12-2.64,3.12a2,2,0,0,1-1.79-.91h0v3.15h-1Zm1,1.55a2.39,2.39,0,0,0,0,.43,1.63,1.63,0,0,0,1.58,1.24c1.12,0,1.76-.91,1.76-2.24,0-1.16-.61-2.16-1.73-2.16a1.69,1.69,0,0,0-1.6,1.31,1.73,1.73,0,0,0-.07.43Z"/><path d="M90.73,114.4a2.84,2.84,0,0,1-2.89,3.08,2.76,2.76,0,0,1-2.78-3,2.83,2.83,0,0,1,2.88-3.08A2.75,2.75,0,0,1,90.73,114.4Zm-4.61.06c0,1.27.73,2.23,1.76,2.23s1.76-.95,1.76-2.25c0-1-.49-2.23-1.74-2.23S86.12,113.35,86.12,114.46Z"/><path d="M92.06,113.12c0-.6,0-1.09,0-1.57H93l.06,1h0A2.13,2.13,0,0,1,95,111.41c.8,0,2.05.48,2.05,2.47v3.47H96V114c0-.94-.35-1.72-1.34-1.72a1.5,1.5,0,0,0-1.42,1.08,1.52,1.52,0,0,0-.07.49v3.49H92.06Z"/><path d="M99.31,114.64a1.86,1.86,0,0,0,2,2,3.81,3.81,0,0,0,1.61-.3l.18.75a4.7,4.7,0,0,1-1.93.36,2.7,2.7,0,0,1-2.85-2.93c0-1.75,1-3.13,2.72-3.13a2.46,2.46,0,0,1,2.4,2.73,4,4,0,0,1,0,.49Zm3.09-.75a1.5,1.5,0,0,0-1.46-1.72,1.75,1.75,0,0,0-1.62,1.72Z"/><path d="M104.74,113.12c0-.6,0-1.09,0-1.57h.94l.06,1h0a2.13,2.13,0,0,1,1.92-1.09c.8,0,2.05.48,2.05,2.47v3.47h-1.06V114c0-.94-.35-1.72-1.34-1.72a1.5,1.5,0,0,0-1.42,1.08,1.52,1.52,0,0,0-.07.49v3.49h-1.06Z"/><path d="M112.62,109.88v1.67h1.51v.8h-1.51v3.13c0,.72.2,1.13.79,1.13a2.34,2.34,0,0,0,.61-.07l0,.79a2.58,2.58,0,0,1-.94.14A1.46,1.46,0,0,1,112,117a2.15,2.15,0,0,1-.41-1.51v-3.17h-.9v-.8h.9v-1.39Z"/><path d="M115.18,116.27a2.78,2.78,0,0,0,1.39.42c.77,0,1.13-.38,1.13-.86s-.3-.78-1.08-1.07c-1-.37-1.54-.95-1.54-1.64a1.79,1.79,0,0,1,2-1.7,2.9,2.9,0,0,1,1.43.36l-.26.77a2.26,2.26,0,0,0-1.19-.34c-.62,0-1,.36-1,.79s.35.7,1.1,1c1,.38,1.52.89,1.52,1.75,0,1-.79,1.74-2.17,1.74a3.32,3.32,0,0,1-1.63-.4Z"/><rect x="36.35" y="153.35" width="144" height="45" rx="12" ry="12" style="fill:#8cc63f;stroke:#000;stroke-miterlimit:10;stroke-width:0.6454972243679029px"/><path d="M60.91,180.09a5.19,5.19,0,0,1-2.13.38,3.78,3.78,0,0,1-4-4.09A4,4,0,0,1,59,172.13a4.32,4.32,0,0,1,1.92.36l-.25.85A3.79,3.79,0,0,0,59,173a3,3,0,0,0-3.15,3.33A2.94,2.94,0,0,0,59,179.59a4.17,4.17,0,0,0,1.7-.34Z"/><path d="M67.31,177.4a2.84,2.84,0,0,1-2.89,3.08,2.76,2.76,0,0,1-2.78-3,2.83,2.83,0,0,1,2.88-3.08A2.75,2.75,0,0,1,67.31,177.4Zm-4.61.06c0,1.27.73,2.23,1.76,2.23s1.76-.95,1.76-2.25c0-1-.49-2.23-1.74-2.23S62.7,176.35,62.7,177.46Z"/><path d="M68.64,176.12c0-.6,0-1.09,0-1.57h.92l0,.94h0a2,2,0,0,1,1.82-1.07,1.72,1.72,0,0,1,1.64,1.16h0a2.39,2.39,0,0,1,.65-.76,2,2,0,0,1,1.28-.41c.77,0,1.91.5,1.91,2.52v3.42h-1v-3.29c0-1.12-.41-1.79-1.26-1.79a1.37,1.37,0,0,0-1.25,1,1.73,1.73,0,0,0-.08.53v3.59h-1v-3.48c0-.92-.41-1.59-1.21-1.59a1.44,1.44,0,0,0-1.31,1.06,1.46,1.46,0,0,0-.08.52v3.5h-1Z"/><path d="M78.65,176.44c0-.74,0-1.34,0-1.89h.95l0,1h0a2.28,2.28,0,0,1,2.06-1.13c1.4,0,2.46,1.19,2.46,3,0,2.09-1.27,3.12-2.64,3.12a2,2,0,0,1-1.79-.91h0v3.15h-1Zm1,1.55a2.39,2.39,0,0,0,0,.43,1.63,1.63,0,0,0,1.58,1.24c1.12,0,1.76-.91,1.76-2.24,0-1.16-.61-2.16-1.73-2.16a1.69,1.69,0,0,0-1.6,1.31,1.73,1.73,0,0,0-.07.43Z"/><path d="M90.73,177.4a2.84,2.84,0,0,1-2.89,3.08,2.76,2.76,0,0,1-2.78-3,2.83,2.83,0,0,1,2.88-3.08A2.75,2.75,0,0,1,90.73,177.4Zm-4.61.06c0,1.27.73,2.23,1.76,2.23s1.76-.95,1.76-2.25c0-1-.49-2.23-1.74-2.23S86.12,176.35,86.12,177.46Z"/><path d="M92.06,176.12c0-.6,0-1.09,0-1.57H93l.06,1h0A2.13,2.13,0,0,1,95,174.41c.8,0,2.05.48,2.05,2.47v3.47H96V177c0-.94-.35-1.72-1.34-1.72a1.5,1.5,0,0,0-1.42,1.08,1.52,1.52,0,0,0-.07.49v3.49H92.06Z"/><path d="M99.31,177.64a1.86,1.86,0,0,0,2,2,3.81,3.81,0,0,0,1.61-.3l.18.75a4.7,4.7,0,0,1-1.93.36,2.7,2.7,0,0,1-2.85-2.93c0-1.75,1-3.13,2.72-3.13a2.46,2.46,0,0,1,2.4,2.73,4,4,0,0,1,0,.49Zm3.09-.75a1.5,1.5,0,0,0-1.46-1.72,1.75,1.75,0,0,0-1.62,1.72Z"/><path d="M104.74,176.12c0-.6,0-1.09,0-1.57h.94l.06,1h0a2.13,2.13,0,0,1,1.92-1.09c.8,0,2.05.48,2.05,2.47v3.47h-1.06V177c0-.94-.35-1.72-1.34-1.72a1.5,1.5,0,0,0-1.42,1.08,1.52,1.52,0,0,0-.07.49v3.49h-1.06Z"/><path d="M112.62,172.88v1.67h1.51v.8h-1.51v3.13c0,.72.2,1.13.79,1.13a2.34,2.34,0,0,0,.61-.07l0,.79a2.58,2.58,0,0,1-.94.14A1.46,1.46,0,0,1,112,180a2.15,2.15,0,0,1-.41-1.51v-3.17h-.9v-.8h.9v-1.39Z"/><path d="M115.18,179.27a2.78,2.78,0,0,0,1.39.42c.77,0,1.13-.38,1.13-.86s-.3-.78-1.08-1.07c-1-.37-1.54-.95-1.54-1.64a1.79,1.79,0,0,1,2-1.7,2.9,2.9,0,0,1,1.43.36l-.26.77a2.26,2.26,0,0,0-1.19-.34c-.62,0-1,.36-1,.79s.35.7,1.1,1c1,.38,1.52.89,1.52,1.75,0,1-.79,1.74-2.17,1.74a3.32,3.32,0,0,1-1.63-.4Z"/><line x1="395.85" y1="81.35" x2="395.85" y2="84.35" style="fill:none;stroke:#000;stroke-miterlimit:10"/><line x1="395.85" y1="92.35" x2="395.85" y2="103.35" style="fill:none;stroke:#000;stroke-miterlimit:10;stroke-dasharray:8,8"/><line x1="395.85" y1="107.35" x2="395.85" y2="110.35" style="fill:none;stroke:#000;stroke-miterlimit:10"/><polygon points="396.35 117.35 392.28 107.4 396.35 109.76 400.41 107.4 396.35 117.35"/><line x1="395.85" y1="144.35" x2="395.85" y2="147.35" style="fill:none;stroke:#000;stroke-miterlimit:10"/><line x1="395.85" y1="155.35" x2="395.85" y2="166.35" style="fill:none;stroke:#000;stroke-miterlimit:10;stroke-dasharray:8,8"/><line x1="395.85" y1="170.35" x2="395.85" y2="173.35" style="fill:none;stroke:#000;stroke-miterlimit:10"/><polygon points="396.35 180.35 392.28 170.4 396.35 172.76 400.41 170.4 396.35 180.35"/><path d="M415.26,100.37a15,15,0,0,1,2.22-.17,4.63,4.63,0,0,1,3.27,1,3.72,3.72,0,0,1,1.14,2.9,4.27,4.27,0,0,1-1.16,3.14,5,5,0,0,1-3.57,1.16,16.67,16.67,0,0,1-1.89-.1Zm1,7.15a6.6,6.6,0,0,0,1.05.06,3.11,3.11,0,0,0,3.44-3.43c0-1.91-1.07-3.12-3.28-3.12a5.94,5.94,0,0,0-1.22.11Z"/><path d="M424.39,100.91a.65.65,0,0,1-1.31,0,.64.64,0,0,1,.66-.66A.63.63,0,0,1,424.39,100.91Zm-1.18,7.44v-5.8h1.06v5.8Z"/><path d="M425.88,107.27a2.78,2.78,0,0,0,1.39.42c.77,0,1.13-.38,1.13-.86s-.3-.78-1.08-1.07c-1-.37-1.54-.95-1.54-1.64a1.79,1.79,0,0,1,2-1.7,2.9,2.9,0,0,1,1.43.36l-.26.77a2.26,2.26,0,0,0-1.19-.34c-.62,0-1,.36-1,.79s.35.7,1.1,1c1,.38,1.52.89,1.52,1.75,0,1-.79,1.74-2.17,1.74a3.32,3.32,0,0,1-1.63-.4Z"/><path d="M430.78,104.44c0-.74,0-1.34,0-1.89h.95l0,1h0a2.28,2.28,0,0,1,2.06-1.13c1.4,0,2.46,1.19,2.46,3,0,2.09-1.27,3.12-2.64,3.12a2,2,0,0,1-1.79-.91h0v3.15h-1Zm1,1.55a2.34,2.34,0,0,0,0,.43,1.63,1.63,0,0,0,1.58,1.24c1.12,0,1.76-.91,1.76-2.24,0-1.16-.61-2.16-1.73-2.16a1.68,1.68,0,0,0-1.59,1.31,1.71,1.71,0,0,0-.07.43Z"/><path d="M440.82,108.35l-.08-.73h0a2.16,2.16,0,0,1-1.78.86,1.65,1.65,0,0,1-1.78-1.67c0-1.4,1.25-2.17,3.49-2.16v-.12a1.2,1.2,0,0,0-1.32-1.34,2.89,2.89,0,0,0-1.51.43l-.24-.7a3.61,3.61,0,0,1,1.91-.52c1.77,0,2.21,1.21,2.21,2.37V107a8.14,8.14,0,0,0,.1,1.39Zm-.16-3c-1.15,0-2.46.18-2.46,1.31a.93.93,0,0,0,1,1,1.45,1.45,0,0,0,1.4-1,1.12,1.12,0,0,0,.06-.34Z"/><path d="M444.61,100.88v1.67h1.51v.8h-1.51v3.13c0,.72.2,1.13.79,1.13a2.33,2.33,0,0,0,.61-.07l0,.79a2.58,2.58,0,0,1-.94.14A1.46,1.46,0,0,1,444,108a2.14,2.14,0,0,1-.41-1.51v-3.17h-.9v-.8h.9v-1.39Z"/><path d="M451.38,108.13a3.9,3.9,0,0,1-1.67.34,2.76,2.76,0,0,1-2.89-3,3,3,0,0,1,3.12-3.08,3.53,3.53,0,0,1,1.46.3l-.24.82a2.45,2.45,0,0,0-1.22-.28,2.19,2.19,0,0,0,0,4.37,3,3,0,0,0,1.3-.29Z"/><path d="M452.62,99.83h1.05v3.62h0a2,2,0,0,1,.75-.74,2.18,2.18,0,0,1,1.08-.3c.78,0,2,.48,2,2.48v3.45H456.5V105c0-.94-.35-1.73-1.34-1.73a1.52,1.52,0,0,0-1.42,1.06,1.27,1.27,0,0,0-.07.5v3.5h-1.05Z"/><path d="M422.07,167.8c-.06-1.13-.13-2.48-.12-3.49h0c-.28.95-.61,2-1,3.07l-1.43,3.92h-.79l-1.31-3.85c-.38-1.14-.71-2.18-.94-3.14h0c0,1-.08,2.36-.16,3.57l-.21,3.47h-1l.56-8.08h1.33l1.38,3.91c.34,1,.61,1.88.82,2.72h0c.2-.82.49-1.7.85-2.72l1.44-3.91h1.33l.5,8.08h-1Z"/><path d="M429.77,169.77c0,.6,0,1.13,0,1.58h-.94l-.06-.95h0a2.19,2.19,0,0,1-1.92,1.08c-.91,0-2-.5-2-2.54v-3.39h1.05v3.21c0,1.1.34,1.85,1.3,1.85a1.53,1.53,0,0,0,1.39-1,1.55,1.55,0,0,0,.1-.54v-3.56h1.05Z"/><path d="M432.79,163.88v1.67h1.51v.8h-1.51v3.13c0,.72.2,1.13.79,1.13a2.34,2.34,0,0,0,.61-.07l0,.79a2.59,2.59,0,0,1-.94.14,1.46,1.46,0,0,1-1.14-.44,2.15,2.15,0,0,1-.41-1.51v-3.17h-.9v-.8h.9v-1.39Z"/><path d="M438.71,171.35l-.08-.73h0a2.16,2.16,0,0,1-1.77.86,1.65,1.65,0,0,1-1.78-1.67c0-1.4,1.25-2.17,3.49-2.16v-.12a1.2,1.2,0,0,0-1.32-1.34,2.89,2.89,0,0,0-1.51.43l-.24-.7a3.6,3.6,0,0,1,1.91-.52c1.78,0,2.21,1.21,2.21,2.37V170a8.14,8.14,0,0,0,.1,1.39Zm-.16-3c-1.15,0-2.46.18-2.46,1.31a.94.94,0,0,0,1,1,1.44,1.44,0,0,0,1.4-1,1.09,1.09,0,0,0,.06-.34Z"/><path d="M442.5,163.88v1.67H444v.8H442.5v3.13c0,.72.2,1.13.79,1.13a2.34,2.34,0,0,0,.61-.07l0,.79a2.58,2.58,0,0,1-.94.14,1.46,1.46,0,0,1-1.14-.44,2.15,2.15,0,0,1-.41-1.51v-3.17h-.9v-.8h.9v-1.39Z"/><path d="M445.72,168.64a1.86,1.86,0,0,0,2,2,3.82,3.82,0,0,0,1.61-.3l.18.75a4.7,4.7,0,0,1-1.93.36,2.7,2.7,0,0,1-2.85-2.93c0-1.75,1-3.13,2.72-3.13a2.46,2.46,0,0,1,2.4,2.73,4,4,0,0,1,0,.49Zm3.09-.75a1.5,1.5,0,0,0-1.46-1.72,1.75,1.75,0,0,0-1.62,1.72Z"/><path d="M395.85,207.35v36s.5,9.5-8.5,9.5h-324s-9.5-.5-9.5-9.5c0-5.36-.07-13.9.07-19.94" style="fill:none;stroke:#000;stroke-miterlimit:10;stroke-dasharray:6,6"/><polygon points="54.35 216.35 58.23 226.37 54.21 223.94 50.1 226.22 54.35 216.35"/><path d="M362.35,63.85h-119c-9,0-9.5,8.5-9.5,8.5v27c0,9-8.5,9.5-8.5,9.5l-59.4-.47" style="fill:none;stroke:#000;stroke-miterlimit:10"/><polygon points="369.35 63.85 359.4 59.78 361.76 63.85 359.4 67.91 369.35 63.85"/><circle cx="166.11" cy="108.38" r="3.76" transform="translate(56.41 273.62) rotate(-89.55)"/><path d="M165.92,171.38l59.43.47s9-.5,9-9.5-.5-90-.5-90" style="fill:none;stroke:#000;stroke-miterlimit:10"/><circle cx="166.11" cy="171.38" r="3.76" transform="translate(-6.58 336.12) rotate(-89.55)"/><path d="M272.8,74.15h-2.46v-.89h6v.89h-2.47v7.2H272.8Z"/><path d="M276.65,77.35c0-.68,0-1.27,0-1.81h.92l0,1.14h0a1.74,1.74,0,0,1,1.61-1.27,1.12,1.12,0,0,1,.3,0v1a1.56,1.56,0,0,0-.36,0,1.48,1.48,0,0,0-1.42,1.36,3,3,0,0,0,0,.49v3.09h-1Z"/><path d="M281.8,73.91a.65.65,0,0,1-1.31,0,.64.64,0,0,1,.66-.66A.63.63,0,0,1,281.8,73.91Zm-1.17,7.44v-5.8h1.05v5.8Z"/><path d="M288.43,75.54c0,.42,0,.89,0,1.59v3.37a3.33,3.33,0,0,1-.83,2.65,3.07,3.07,0,0,1-2.11.7,3.74,3.74,0,0,1-1.93-.48l.26-.8a3.28,3.28,0,0,0,1.7.46c1.08,0,1.87-.56,1.87-2v-.65h0a2.07,2.07,0,0,1-1.85,1A2.59,2.59,0,0,1,283,78.49a2.79,2.79,0,0,1,2.61-3.08,1.93,1.93,0,0,1,1.81,1h0l0-.87Zm-1.09,2.29a1.54,1.54,0,0,0-1.54-1.6c-1,0-1.73.85-1.73,2.2,0,1.14.58,2.09,1.71,2.09a1.54,1.54,0,0,0,1.46-1.08,1.82,1.82,0,0,0,.08-.56Z"/><path d="M295.14,75.54c0,.42,0,.89,0,1.59v3.37a3.34,3.34,0,0,1-.83,2.65,3.07,3.07,0,0,1-2.11.7,3.75,3.75,0,0,1-1.93-.48l.26-.8a3.28,3.28,0,0,0,1.7.46c1.08,0,1.87-.56,1.87-2v-.65h0a2.07,2.07,0,0,1-1.85,1,2.59,2.59,0,0,1-2.47-2.83,2.79,2.79,0,0,1,2.61-3.08,1.93,1.93,0,0,1,1.81,1h0l0-.87ZM294,77.84a1.54,1.54,0,0,0-1.54-1.6c-1,0-1.73.85-1.73,2.2,0,1.14.58,2.09,1.71,2.09A1.54,1.54,0,0,0,294,79.44a1.82,1.82,0,0,0,.08-.56Z"/><path d="M297.43,78.64a1.86,1.86,0,0,0,2,2,3.82,3.82,0,0,0,1.61-.3l.18.75a4.7,4.7,0,0,1-1.93.36,2.7,2.7,0,0,1-2.85-2.93c0-1.75,1-3.13,2.72-3.13a2.46,2.46,0,0,1,2.4,2.73,4,4,0,0,1,0,.49Zm3.09-.75a1.5,1.5,0,0,0-1.46-1.72,1.75,1.75,0,0,0-1.62,1.72Z"/><path d="M302.86,77.35c0-.68,0-1.27,0-1.81h.92l0,1.14h0a1.74,1.74,0,0,1,1.61-1.27,1.13,1.13,0,0,1,.3,0v1a1.56,1.56,0,0,0-.36,0,1.48,1.48,0,0,0-1.42,1.36,3,3,0,0,0,0,.49v3.09h-1Z"/></svg>